<?xml version="1.0" encoding="iso-8859-1"?>
<!-- Generator: Adobe Illustrator 19.0.0, SVG Export Plug-In . SVG Version: 6.00 Build 0)  -->
<svg version="1.1" id="Capa_1" xmlns="http://www.w3.org/2000/svg" xmlns:xlink="http://www.w3.org/1999/xlink" x="0px" y="0px"
	 viewBox="0 0 512 512" style="enable-background:new 0 0 512 512;" xml:space="preserve">
<g>
	<g>
		<g>
			<path style="fill:#231F20;" d="M11.13,44.522H500.87c6.155,0,11.13-4.986,11.13-11.13s-4.975-11.13-11.13-11.13H11.13
				C4.986,22.261,0,27.247,0,33.391S4.986,44.522,11.13,44.522z"/>
			<path style="fill:#231F20;" d="M500.87,200.348H11.13c-6.144,0-11.13,4.986-11.13,11.13s4.986,11.13,11.13,11.13H500.87
				c6.155,0,11.13-4.986,11.13-11.13S507.025,200.348,500.87,200.348z"/>
			<path style="fill:#231F20;" d="M500.87,111.304H189.217c-6.144,0-11.13,4.986-11.13,11.13c0,6.144,4.986,11.13,11.13,11.13
				H500.87c6.155,0,11.13-4.986,11.13-11.13C512,116.291,507.025,111.304,500.87,111.304z"/>
			<path style="fill:#231F20;" d="M500.87,467.478H189.217c-6.144,0-11.13,4.975-11.13,11.13s4.986,11.13,11.13,11.13H500.87
				c6.155,0,11.13-4.975,11.13-11.13S507.025,467.478,500.87,467.478z"/>
			<path style="fill:#231F20;" d="M500.87,378.435H11.13c-6.144,0-11.13,4.975-11.13,11.13s4.986,11.13,11.13,11.13H500.87
				c6.155,0,11.13-4.975,11.13-11.13S507.025,378.435,500.87,378.435z"/>
			<path style="fill:#231F20;" d="M500.87,289.391H189.217c-6.144,0-11.13,4.975-11.13,11.13c0,6.155,4.986,11.13,11.13,11.13
				H500.87c6.155,0,11.13-4.975,11.13-11.13C512,294.367,507.025,289.391,500.87,289.391z"/>
		</g>
	</g>
</g>
<g>
</g>
<g>
</g>
<g>
</g>
<g>
</g>
<g>
</g>
<g>
</g>
<g>
</g>
<g>
</g>
<g>
</g>
<g>
</g>
<g>
</g>
<g>
</g>
<g>
</g>
<g>
</g>
<g>
</g>
</svg>
