<svg id="business_stats" data-name="business stats" xmlns="http://www.w3.org/2000/svg" width="23.993" height="23.224" viewBox="0 0 23.993 23.224">
  <g id="Group_17" data-name="Group 17" transform="translate(0 0)">
    <path id="Path_27" data-name="Path 27" d="M3.23,24.77h7.844v3.691H5.229a.923.923,0,0,0,0,1.846H18.61a.923.923,0,0,0,0-1.846H12.919V24.77h7.844a3.249,3.249,0,0,0,3.23-3.23v-11.2a3.276,3.276,0,0,0-3.23-3.261H3.23A3.276,3.276,0,0,0,0,10.344v11.2A3.249,3.249,0,0,0,3.23,24.77Zm18.918-3.2a1.355,1.355,0,0,1-1.353,1.353H3.2a1.355,1.355,0,0,1-1.353-1.353V10.282A1.355,1.355,0,0,1,3.2,8.929h17.58a1.355,1.355,0,0,1,1.353,1.353V21.571h.015Z" transform="translate(0 -7.083)" fill="#501e78"/>
  </g>
</svg>
