<svg xmlns="http://www.w3.org/2000/svg" width="30" height="30" viewBox="0 0 30 30">
  <path id="facebook" d="M26.484,0H3.516A3.519,3.519,0,0,0,0,3.516V26.484A3.519,3.519,0,0,0,3.516,30H26.484A3.519,3.519,0,0,0,30,26.484V3.516A3.519,3.519,0,0,0,26.484,0Zm1.172,26.484a1.173,1.173,0,0,1-1.172,1.172H19.57V19.1h3.752l.437-3.633H19.57V11.543a1.719,1.719,0,0,1,1.758-1.758h2.637v-3.4a26.062,26.062,0,0,0-2.637-.234A5.426,5.426,0,0,0,17.57,7.734a5.335,5.335,0,0,0-1.632,3.819v3.915H12.129V19.1h3.809v8.555H3.516a1.173,1.173,0,0,1-1.172-1.172V3.516A1.173,1.173,0,0,1,3.516,2.344H26.484a1.173,1.173,0,0,1,1.172,1.172Zm0,0" fill="#46186c"/>
</svg>
