<svg xmlns="http://www.w3.org/2000/svg" width="611.827" height="356.816" viewBox="0 0 611.827 356.816">
  <g id="google_lead_illustrator" data-name="google lead illustrator" transform="translate(-1291.819 -1103.34)">
    <path id="Path_1698" data-name="Path 1698" d="M6101.77,1201.172a27.965,27.965,0,1,1,27.966-27.965A27.964,27.964,0,0,1,6101.77,1201.172Zm70.85-19.959a71.657,71.657,0,0,0,.452-8.006c0-1.428-.048-2.846-.132-4.252l-13.226-4.28a58.185,58.185,0,0,0-4.686-15.848l8.772-10.793a71.458,71.458,0,0,0-6.947-10.1l-13.23,4.317a58.79,58.79,0,0,0-13.1-10.067l.753-13.9a70.717,70.717,0,0,0-11.547-4.093l-8.17,11.273a58.808,58.808,0,0,0-16.515-.432l-7.563-11.691a70.735,70.735,0,0,0-11.751,3.473l.016,13.92a58.737,58.737,0,0,0-13.611,9.363l-12.977-5.008a71.484,71.484,0,0,0-7.476,9.718l8.19,11.243a58.234,58.234,0,0,0-5.521,15.578l-13.433,3.575a71.633,71.633,0,0,0-.452,8.005c0,1.428.048,2.845.13,4.253l13.228,4.28a58.173,58.173,0,0,0,4.685,15.849l-8.771,10.793a71.513,71.513,0,0,0,6.946,10.1l13.232-4.317a58.7,58.7,0,0,0,13.1,10.067l-.752,13.9a70.739,70.739,0,0,0,11.548,4.093l8.169-11.273a58.892,58.892,0,0,0,16.514.433l7.563,11.69a70.7,70.7,0,0,0,11.75-3.473l-.017-13.92a58.655,58.655,0,0,0,13.611-9.363l12.979,5.008a71.589,71.589,0,0,0,7.475-9.718l-8.19-11.245a58.214,58.214,0,0,0,5.521-15.577Z" transform="translate(-4515.766)" fill="#9ec8ff"/>
    <path id="Path_1699" data-name="Path 1699" d="M8122.241,2176.042a1.045,1.045,0,0,1-.8-1.713,47.307,47.307,0,0,0,8.337-45.569,1.044,1.044,0,1,1,1.975-.681,49.393,49.393,0,0,1-8.7,47.587A1.044,1.044,0,0,1,8122.241,2176.042Z" transform="translate(-6498.096 -970.941)" fill="#fff"/>
    <path id="Path_1700" data-name="Path 1700" d="M7740.212,1567.5a1.034,1.034,0,0,1-.713-.284,46.982,46.982,0,0,0-16.262-10.019,1.046,1.046,0,0,1,.714-1.966,49.046,49.046,0,0,1,16.979,10.462,1.045,1.045,0,0,1-.718,1.806Z" transform="translate(-6120.117 -428.399)" fill="#fff"/>
    <path id="Path_1701" data-name="Path 1701" d="M7177.373,1503.157a1.046,1.046,0,0,1-.255-2.059,49.532,49.532,0,0,1,12.108-1.5,1.045,1.045,0,1,1,0,2.091,47.444,47.444,0,0,0-11.6,1.434A1.04,1.04,0,0,1,7177.373,1503.157Z" transform="translate(-5602.215 -375.715)" fill="#fff"/>
    <path id="Path_1702" data-name="Path 1702" d="M2587.365,5047.995a19.37,19.37,0,1,1,19.371-19.37A19.371,19.371,0,0,1,2587.365,5047.995Zm49.073-13.826a49.62,49.62,0,0,0,.311-5.544q0-1.485-.09-2.946l-9.161-2.964a40.28,40.28,0,0,0-3.245-10.979l6.076-7.476a49.49,49.49,0,0,0-4.813-6.994l-9.163,2.989a40.721,40.721,0,0,0-9.072-6.971l.521-9.629a49.125,49.125,0,0,0-8-2.835l-5.658,7.809a40.743,40.743,0,0,0-11.439-.3l-5.239-8.1a49.271,49.271,0,0,0-8.139,2.407l.013,9.642a40.643,40.643,0,0,0-9.428,6.483l-8.99-3.467a49.508,49.508,0,0,0-5.177,6.731l5.673,7.787a40.27,40.27,0,0,0-3.824,10.792l-9.3,2.475a49.936,49.936,0,0,0-.312,5.546c0,.988.033,1.971.09,2.945l9.162,2.964a40.242,40.242,0,0,0,3.244,10.977l-6.075,7.476a49.506,49.506,0,0,0,4.813,7l9.163-2.992a40.7,40.7,0,0,0,9.071,6.974l-.521,9.626a48.868,48.868,0,0,0,8,2.834l5.658-7.807a40.73,40.73,0,0,0,11.439.3l5.239,8.1a49.056,49.056,0,0,0,8.138-2.4l-.012-9.644a40.619,40.619,0,0,0,9.428-6.485l8.989,3.469a49.581,49.581,0,0,0,5.177-6.729l-5.674-7.79a40.246,40.246,0,0,0,3.825-10.789l9.3-2.476Z" transform="translate(-1204.35 -3675.885)" fill="#9ec8ff"/>
    <path id="Path_1703" data-name="Path 1703" d="M3980.956,5717.711a1.045,1.045,0,0,1-.8-1.714,32.444,32.444,0,0,0,5.717-31.252,1.045,1.045,0,0,1,1.977-.682,34.544,34.544,0,0,1-6.086,33.272A1.042,1.042,0,0,1,3980.956,5717.711Z" transform="translate(-2571.522 -4342.561)" fill="#fff"/>
    <path id="Path_1704" data-name="Path 1704" d="M3716.336,5296.2a1.044,1.044,0,0,1-.717-.284,32.216,32.216,0,0,0-11.151-6.872,1.045,1.045,0,1,1,.713-1.964,34.267,34.267,0,0,1,11.872,7.312,1.047,1.047,0,0,1-.716,1.808Z" transform="translate(-2309.706 -3966.768)" fill="#fff"/>
    <path id="Path_1705" data-name="Path 1705" d="M3326.488,5251.636a1.045,1.045,0,0,1-.254-2.059,34.657,34.657,0,0,1,8.466-1.047,1.045,1.045,0,0,1,0,2.09,32.6,32.6,0,0,0-7.954.981A.956.956,0,0,1,3326.488,5251.636Z" transform="translate(-1950.987 -3930.276)" fill="#fff"/>
    <path id="Path_1706" data-name="Path 1706" d="M8356.618,2992.879a12.356,12.356,0,1,1,12.357-12.356A12.357,12.357,0,0,1,8356.618,2992.879Zm29.658-12.925q0-.812-.044-1.611l6.866-5.511a36.734,36.734,0,0,0-2.5-7.887l-8.863-.67a29.509,29.509,0,0,0-7.674-8.142l-.029-8.833a36.648,36.648,0,0,0-7.857-3.032l-6.059,6.52a29.493,29.493,0,0,0-10.894.854l-6.946-5.5a36.834,36.834,0,0,0-7.349,4.261l1.315,8.756a29.417,29.417,0,0,0-6.188,9.031l-8.642,2a36.823,36.823,0,0,0-1.277,8.331l7.611,4.4a29.147,29.147,0,0,0,3.257,10.756l-3.811,7.981a36.988,36.988,0,0,0,5.6,6.094l8.16-3.2a29.173,29.173,0,0,0,10.762,4.27l3.847,7.921c.458.016.918.028,1.382.028a37.049,37.049,0,0,0,6.747-.619l2.595-8.389a29.317,29.317,0,0,0,10.127-5.879l8.579,1.928a36.9,36.9,0,0,0,4.569-6.749l-4.973-7.3A29.276,29.276,0,0,0,8386.276,2979.954Z" transform="translate(-6686.726 -1745.483)" fill="#9ec8ff"/>
    <path id="Path_1707" data-name="Path 1707" d="M11468.615,1793.333H11458a7.446,7.446,0,0,1-7.437-7.437v-10.62a7.446,7.446,0,0,1,7.437-7.437h10.618a7.447,7.447,0,0,1,7.442,7.437v10.62A7.447,7.447,0,0,1,11468.615,1793.333ZM11458,1770.767a4.516,4.516,0,0,0-4.513,4.51v10.62a4.516,4.516,0,0,0,4.513,4.51h10.618a4.516,4.516,0,0,0,4.513-4.51v-10.62a4.516,4.516,0,0,0-4.513-4.51Z" transform="translate(-9654.844 -630.048)" fill="#b1d3ff"/>
    <path id="Path_1708" data-name="Path 1708" d="M10504.825,1793.333h-10.619a7.444,7.444,0,0,1-7.436-7.437v-10.62a7.444,7.444,0,0,1,7.436-7.437h10.619a7.445,7.445,0,0,1,7.436,7.437v10.62A7.445,7.445,0,0,1,10504.825,1793.333Zm-10.619-22.567a4.512,4.512,0,0,0-4.508,4.51v10.62a4.513,4.513,0,0,0,4.508,4.51h10.619a4.518,4.518,0,0,0,4.514-4.51v-10.62a4.518,4.518,0,0,0-4.514-4.51Z" transform="translate(-8741.022 -630.048)" fill="#b1d3ff"/>
    <path id="Path_1709" data-name="Path 1709" d="M10582.842,1730.277l-.06,0a1.252,1.252,0,0,1-.937-.489l-7.632-9.956a1.254,1.254,0,1,1,1.99-1.527l6.733,8.781,17.569-18.829a1.255,1.255,0,1,1,1.836,1.711l-18.583,19.913A1.263,1.263,0,0,1,10582.842,1730.277Z" transform="translate(-8823.685 -573.175)" fill="#f37168"/>
    <path id="Path_1710" data-name="Path 1710" d="M2642.922,7448.446c-43.471-2.126-191.372,1.476-236.352,2.878s-97.192-1.852-124.314-6.64-183.892.408-176.778,13.281,69.849,5.757,140.992,10.931,231.143-.646,267.231,0,69.186-1.292,115.7-3.88S2668.129,7449.677,2642.922,7448.446Z" transform="translate(-794.05 -6010.904)" fill="#cce2ff"/>
    <path id="Path_1711" data-name="Path 1711" d="M2151.92,2506.4H2242.8V2357.44H2151.92Z" transform="translate(-838.306 -1189.079)" fill="#99bbeb"/>
    <path id="Path_1712" data-name="Path 1712" d="M2243.73,2556.228h83.135V2415.98H2243.73Z" transform="translate(-925.357 -1244.584)" fill="#fff"/>
    <path id="Path_1713" data-name="Path 1713" d="M2723.33,3338.168c3.129-6.732,8.425-8.888,17.122-8.888,10.355,0,15.731,3.751,17.256,9.213C2739.165,3338.748,2723.33,3338.168,2723.33,3338.168Z" transform="translate(-1380.091 -2110.533)" fill="#9bd6e8"/>
    <path id="Path_1714" data-name="Path 1714" d="M2744.508,2692.31c-4.384,1.23-4.192,3.694-5.653,5.98s-4.636,3.811-5.017,5.334.978,4.7-.635,6.478-2.159,2.667-1.524,4.445,2.032,4.573,2.158,4.954,1.906,3.048,4.065,3.429,6.223,1.017,8.255,1.906,8.566-1.138,12.193-1.012,6.1-2.545,5.842-4.323,2.675-5.335,2.667-8.383c-.008-3.273-3.81-5.716-4.826-7.875s.127-5.969-3.683-8.226c-2.408-1.427-4.065-1.3-5.969-1.935S2747.3,2691.527,2744.508,2692.31Z" transform="translate(-1387.763 -1506.302)" fill="#3a384d"/>
    <path id="Path_1715" data-name="Path 1715" d="M2989.165,3033.436c-.992,1.463-1.719,1.523-2.794,0-.855-1.212-2.54-3.965-2.54-5.363V3014.13a2.547,2.547,0,0,1,2.54-2.54h2.794a2.548,2.548,0,0,1,2.54,2.54v13.943C2991.7,3029.471,2990.053,3032.123,2989.165,3033.436Z" transform="translate(-1627.085 -1809.313)" fill="#f09959"/>
    <path id="Path_1716" data-name="Path 1716" d="M2989.165,3011.59h-2.794a2.547,2.547,0,0,0-2.54,2.54v12.44c3.137,1,6-.987,7.875-3.224v-9.217A2.548,2.548,0,0,0,2989.165,3011.59Z" transform="translate(-1627.085 -1809.313)" fill="#e38540"/>
    <path id="Path_1717" data-name="Path 1717" d="M2913.742,2803.839c0,6.356-3.781,11.508-8.446,11.508s-8.446-5.153-8.446-11.508,3.782-11.509,8.446-11.509S2913.742,2797.483,2913.742,2803.839Z" transform="translate(-1544.615 -1601.422)" fill="#f09959"/>
    <path id="Path_1718" data-name="Path 1718" d="M2894.139,2754.569c-5.335,9.018-13.209,8.128-13.209,8.128s.191-11.938,6.446-12.574,9.938,1.875,11.208,6.018a10.221,10.221,0,0,1,0,6.873,10.967,10.967,0,0,1-3.048-4.127A29.621,29.621,0,0,1,2894.139,2754.569Z" transform="translate(-1529.52 -1561.311)" fill="#3a384d"/>
    <path id="Path_1719" data-name="Path 1719" d="M2831.732,2970.536c.79,1.663.532,3.438-.577,3.966s-2.647-.4-3.437-2.058-.531-3.439.577-3.965S2830.943,2968.873,2831.732,2970.536Z" transform="translate(-1478.632 -1768.297)" fill="#f09959"/>
    <path id="Path_1720" data-name="Path 1720" d="M3190.271,2970.536c-.79,1.663-.531,3.438.578,3.966s2.648-.4,3.438-2.058.531-3.439-.578-3.965S3191.061,2968.873,3190.271,2970.536Z" transform="translate(-1822.388 -1768.297)" fill="#f09959"/>
    <path id="Path_1721" data-name="Path 1721" d="M3004.871,3134.7s-1.421,1.843-3.176,1.843-3.175-1.843-3.175-1.843Z" transform="translate(-1641.013 -1926.04)" fill="#fff"/>
    <path id="Path_1722" data-name="Path 1722" d="M2818.26,3762.13h-21.33a2.48,2.48,0,1,1,0-4.96h21.33a2.48,2.48,0,0,1,0,4.96Z" transform="translate(-1447.523 -2516.238)" fill="#99bbeb"/>
    <path id="Path_1723" data-name="Path 1723" d="M2750.75,3909.1h-29.14a2.48,2.48,0,0,1,0-4.96h29.14a2.48,2.48,0,1,1,0,4.96Z" transform="translate(-1376.109 -2655.588)" fill="#99bbeb"/>
    <path id="Path_1724" data-name="Path 1724" d="M2408.972,4475.749h-70.883a1.439,1.439,0,0,1,0-2.879h70.883a1.439,1.439,0,0,1,0,2.879Z" transform="translate(-1013.459 -3194.831)" fill="#99bbeb"/>
    <path id="Path_1725" data-name="Path 1725" d="M2408.972,4604.758h-70.883a1.439,1.439,0,0,1,0-2.878h70.883a1.439,1.439,0,0,1,0,2.878Z" transform="translate(-1013.459 -3317.152)" fill="#99bbeb"/>
    <path id="Path_1726" data-name="Path 1726" d="M2408.972,4733.778h-70.883a1.439,1.439,0,0,1,0-2.878h70.883a1.439,1.439,0,0,1,0,2.878Z" transform="translate(-1013.459 -3439.483)" fill="#99bbeb"/>
    <path id="Path_1727" data-name="Path 1727" d="M2508.63,2528.03a.486.486,0,0,0-.479.479v47.054a.485.485,0,0,0,.479.479h51.055a.486.486,0,0,0,.479-.479v-47.054a.486.486,0,0,0-.479-.479Zm51.055,50.1H2508.63a2.573,2.573,0,0,1-2.57-2.57v-47.054a2.572,2.572,0,0,1,2.57-2.569h51.055a2.572,2.572,0,0,1,2.569,2.569v47.054A2.573,2.573,0,0,1,2559.685,2578.133Z" transform="translate(-1174.086 -1348.842)" fill="#99bbeb"/>
    <path id="Path_1728" data-name="Path 1728" d="M2610.243,4124.61l1.479,3,3.305.48-2.392,2.331.564,3.292-2.957-1.554-2.956,1.554.564-3.292-2.392-2.331,3.306-.48Z" transform="translate(-1268.332 -2864.627)" fill="#99bbeb"/>
    <path id="Path_1729" data-name="Path 1729" d="M2843.753,4124.61l1.478,3,3.305.48-2.392,2.331.564,3.292-2.957-1.554-2.956,1.554.565-3.292-2.392-2.331,3.3-.48Z" transform="translate(-1489.735 -2864.627)" fill="#99bbeb"/>
    <path id="Path_1730" data-name="Path 1730" d="M3077.273,4124.61l1.479,3,3.3.48-2.391,2.331.565,3.292-2.957-1.554-2.956,1.554.564-3.292-2.391-2.331,3.3-.48Z" transform="translate(-1711.148 -2864.627)" fill="#99bbeb"/>
    <path id="Path_1731" data-name="Path 1731" d="M3310.783,4124.61l1.478,3,3.305.48-2.391,2.331.565,3.292-2.957-1.554-2.957,1.554.565-3.292-2.391-2.331,3.3-.48Z" transform="translate(-1932.551 -2864.627)" fill="#99bbeb"/>
    <path id="Path_1732" data-name="Path 1732" d="M6059.82,2506.4H6150.7V2357.44H6059.82Z" transform="translate(-4543.595 -1189.079)" fill="#99bbeb"/>
    <path id="Path_1733" data-name="Path 1733" d="M6151.59,2556.228h83.135V2415.98H6151.59Z" transform="translate(-4630.606 -1244.584)" fill="#fff"/>
    <path id="Path_1734" data-name="Path 1734" d="M6707.41,2999.66c0,6.672,4.016,17.438,13.492,17.092s11.573-10.607,11.941-13.5S6707.41,2999.66,6707.41,2999.66Z" transform="translate(-5157.61 -1798.002)" fill="#7a4e34"/>
    <path id="Path_1735" data-name="Path 1735" d="M6631.24,3338.168c3.128-6.732,8.425-8.888,17.121-8.888,10.354,0,15.731,3.751,17.255,9.213C6647.073,3338.748,6631.24,3338.168,6631.24,3338.168Z" transform="translate(-5085.389 -2110.533)" fill="#d54a41"/>
    <path id="Path_1736" data-name="Path 1736" d="M6897.044,3033.436c-.993,1.463-1.718,1.523-2.794,0-.855-1.212-2.54-3.965-2.54-5.363V3014.13a2.548,2.548,0,0,1,2.54-2.54h2.794a2.548,2.548,0,0,1,2.541,2.54v13.943C6899.584,3029.471,6897.934,3032.123,6897.044,3033.436Z" transform="translate(-5332.354 -1809.313)" fill="#f09959"/>
    <path id="Path_1737" data-name="Path 1737" d="M6897.044,3011.59h-2.794a2.548,2.548,0,0,0-2.54,2.54v12.44c3.137,1,6-.987,7.875-3.224v-9.217A2.548,2.548,0,0,0,6897.044,3011.59Z" transform="translate(-5332.354 -1809.313)" fill="#e38540"/>
    <path id="Path_1738" data-name="Path 1738" d="M6821.633,2803.839c0,6.356-3.782,11.508-8.448,11.508s-8.445-5.153-8.445-11.508,3.781-11.509,8.445-11.509S6821.633,2797.483,6821.633,2803.839Z" transform="translate(-5249.893 -1601.422)" fill="#f09959"/>
    <path id="Path_1739" data-name="Path 1739" d="M6724.993,2716.347c-1,3.539-3.2,3.5-6.27,4.66s-4.532,2.332-5.536,4.6c-1.281,2.887.581,11.3.581,11.3s-7.767-5.811-6.869-14.95,6.288-12.678,11.358-12.678,7,3.091,7,3.091,2.7.01,5.255,3.037c3.435,4.068,2.376,13.946,0,17.486s-3.962,4.648-3.91,4.49,2.219-8.286,1.058-13.312a32.1,32.1,0,0,0-2.67-7.724Z" transform="translate(-5157.057 -1522.677)" fill="#7a4e34"/>
    <path id="Path_1740" data-name="Path 1740" d="M6912.741,3134.7s-1.422,1.843-3.176,1.843-3.175-1.843-3.175-1.843Z" transform="translate(-5346.272 -1926.04)" fill="#fff"/>
    <path id="Path_1741" data-name="Path 1741" d="M6726.14,3762.13h-21.329a2.48,2.48,0,1,1,0-4.96h21.329a2.48,2.48,0,0,1,0,4.96Z" transform="translate(-5152.793 -2516.238)" fill="#99bbeb"/>
    <path id="Path_1742" data-name="Path 1742" d="M6658.631,3909.1h-29.14a2.48,2.48,0,1,1,0-4.96h29.14a2.48,2.48,0,1,1,0,4.96Z" transform="translate(-5081.378 -2655.588)" fill="#99bbeb"/>
    <path id="Path_1743" data-name="Path 1743" d="M6316.852,4475.749H6245.97a1.439,1.439,0,1,1,0-2.879h70.882a1.439,1.439,0,1,1,0,2.879Z" transform="translate(-4718.729 -3194.831)" fill="#99bbeb"/>
    <path id="Path_1744" data-name="Path 1744" d="M6316.852,4604.758H6245.97a1.439,1.439,0,1,1,0-2.878h70.882a1.439,1.439,0,1,1,0,2.878Z" transform="translate(-4718.729 -3317.152)" fill="#99bbeb"/>
    <path id="Path_1745" data-name="Path 1745" d="M6316.852,4733.778H6245.97a1.439,1.439,0,1,1,0-2.878h70.882a1.439,1.439,0,1,1,0,2.878Z" transform="translate(-4718.729 -3439.483)" fill="#99bbeb"/>
    <path id="Path_1746" data-name="Path 1746" d="M6416.519,2528.03a.486.486,0,0,0-.479.479v47.054a.486.486,0,0,0,.479.479h51.055a.485.485,0,0,0,.479-.479v-47.054a.486.486,0,0,0-.479-.479Zm51.055,50.1h-51.055a2.573,2.573,0,0,1-2.57-2.57v-47.054a2.572,2.572,0,0,1,2.57-2.569h51.055a2.571,2.571,0,0,1,2.569,2.569v47.054A2.572,2.572,0,0,1,6467.574,2578.133Z" transform="translate(-4879.364 -1348.842)" fill="#99bbeb"/>
    <path id="Path_1747" data-name="Path 1747" d="M6518.123,4124.61l1.478,3,3.305.48-2.392,2.331.564,3.292-2.956-1.554-2.956,1.554.564-3.292-2.392-2.331,3.306-.48Z" transform="translate(-4973.601 -2864.627)" fill="#99bbeb"/>
    <path id="Path_1748" data-name="Path 1748" d="M6751.663,4124.61l1.478,3,3.305.48-2.392,2.331.565,3.292-2.956-1.554-2.958,1.554.566-3.292-2.391-2.331,3.305-.48Z" transform="translate(-5195.033 -2864.627)" fill="#99bbeb"/>
    <path id="Path_1749" data-name="Path 1749" d="M6985.163,4124.61l1.477,3,3.306.48-2.391,2.331.564,3.292-2.956-1.554-2.957,1.554.564-3.292-2.391-2.331,3.305-.48Z" transform="translate(-5416.427 -2864.627)" fill="#99bbeb"/>
    <path id="Path_1750" data-name="Path 1750" d="M7218.656,4124.61l1.478,3,3.306.48-2.393,2.331.565,3.292-2.956-1.554-2.958,1.554.564-3.292-2.392-2.331,3.305-.48Z" transform="translate(-5637.812 -2864.627)" fill="#99bbeb"/>
    <path id="Path_1751" data-name="Path 1751" d="M4016.549,2515.027H3904.82V2368.11h110.34q-.129,2.13-.132,4.293c0,1.428.048,2.845.129,4.253l1.392.45Z" transform="translate(-2500.324 -1199.196)" fill="#d7e8fa"/>
    <path id="Path_1752" data-name="Path 1752" d="M6031.992,2377.106l-1.392-.45c-.082-1.407-.13-2.824-.13-4.253s.046-2.873.132-4.293h1.39Z" transform="translate(-4515.766 -1199.196)" fill="#9dc5fb"/>
    <path id="Path_1753" data-name="Path 1753" d="M3511.991,2515.027h-21.48l.289-4.187H3509V2370.592h-8.519l.172-2.482h11.334Z" transform="translate(-2107.495 -1199.196)" fill="#99bbeb"/>
    <path id="Path_1754" data-name="Path 1754" d="M3514.294,2556.229h-18.2l1.2-17.349h11.01a1.439,1.439,0,0,0,0-2.879h-10.812l.263-3.811H3508.3a1.439,1.439,0,0,0,0-2.878h-10.351l.263-3.81H3508.3a1.44,1.44,0,0,0,0-2.879h-9.888l7.364-106.643h8.519Z" transform="translate(-2112.786 -1244.584)" fill="#ebf1fb"/>
    <path id="Path_1755" data-name="Path 1755" d="M3547.1,4475.749H3537.01l.2-2.879h9.889a1.439,1.439,0,0,1,0,2.879Z" transform="translate(-2151.585 -3194.831)" fill="#99bbeb"/>
    <path id="Path_1756" data-name="Path 1756" d="M3538.659,4604.758H3528.11l.2-2.878h10.351a1.439,1.439,0,0,1,0,2.878Z" transform="translate(-2143.146 -3317.152)" fill="#99bbeb"/>
    <path id="Path_1757" data-name="Path 1757" d="M3530.211,4733.778H3519.2l.2-2.878h10.811a1.439,1.439,0,0,1,0,2.878Z" transform="translate(-2134.698 -3439.483)" fill="#99bbeb"/>
    <path id="Path_1758" data-name="Path 1758" d="M6070.037,2515.027H6059.82V2368.11h15.388l-.088,2.482h-10.542V2510.84h5.6Z" transform="translate(-4543.595 -1199.196)" fill="#99bbeb"/>
    <path id="Path_1759" data-name="Path 1759" d="M6157.194,2556.228h-5.6V2415.98h10.542l-3.755,106.643h-.529a1.439,1.439,0,1,0,0,2.879h.429l-.136,3.81h-.293a1.439,1.439,0,1,0,0,2.879h.192l-.133,3.811h-.059a1.438,1.438,0,0,0-.044,2.876Z" transform="translate(-4630.606 -1244.584)" fill="#ebf1fb"/>
    <path id="Path_1760" data-name="Path 1760" d="M6246.4,4475.749h-.429a1.439,1.439,0,1,1,0-2.879h.529Z" transform="translate(-4718.729 -3194.831)" fill="#99bbeb"/>
    <path id="Path_1761" data-name="Path 1761" d="M6246.163,4604.758h-.192a1.439,1.439,0,1,1,0-2.878h.293Z" transform="translate(-4718.729 -3317.152)" fill="#99bbeb"/>
    <path id="Path_1762" data-name="Path 1762" d="M6245.925,4733.776a1.439,1.439,0,0,1,.044-2.876h.059Z" transform="translate(-4718.728 -3439.483)" fill="#99bbeb"/>
    <path id="Path_1763" data-name="Path 1763" d="M3781.1,2035.337h124.132V1831.88H3781.1Z" transform="translate(-2383.02 -690.767)" fill="#99bbeb"/>
    <path id="Path_1764" data-name="Path 1764" d="M3906.49,2103.4h113.548V1911.84H3906.49Z" transform="translate(-2501.908 -766.582)" fill="#fff"/>
    <path id="Path_1765" data-name="Path 1765" d="M4755.173,2263.324c-.08-.238-2.067-11.647-2.306-16.085s7.132-5.072,7.132-5.072,6.021-3.249,10.38-1.584a17.559,17.559,0,0,1,9.3,7.95c1.982,3.486-1.741,14.353-1.741,14.353Z" transform="translate(-3304.399 -1077.831)" fill="#2e2d3d"/>
    <path id="Path_1766" data-name="Path 1766" d="M4533.892,3084.556c-.027-.188.51-4.679.529-4.861,1-9.456,12.659-12.115,24.289-12.115,13.666,0,22.937,2.5,24.417,12.327.043.287.832,4.789.792,5.093C4558.59,3085.346,4533.892,3084.556,4533.892,3084.556Z" transform="translate(-3096.78 -1862.401)" fill="#d5e1e8"/>
    <path id="Path_1767" data-name="Path 1767" d="M4895.356,2663.488c-1.354,2-2.347,2.082-3.816,0-1.168-1.655-5.069-5.431-5.069-7.34l1.6-19.029a3.479,3.479,0,0,1,3.468-3.469h3.816a3.48,3.48,0,0,1,3.471,3.469l.744,19.029C4899.571,2658.057,4896.572,2661.695,4895.356,2663.488Z" transform="translate(-3431.08 -1450.968)" fill="#f09959"/>
    <path id="Path_1768" data-name="Path 1768" d="M4899.215,2633.65H4895.4a3.479,3.479,0,0,0-3.468,3.469L4890.54,2654c4.285,1.364,10.071-1.409,12.63-4.464l-.485-12.417A3.48,3.48,0,0,0,4899.215,2633.65Z" transform="translate(-3434.938 -1450.968)" fill="#e38540"/>
    <path id="Path_1769" data-name="Path 1769" d="M4768.45,3087.656l6.119,11.309s3.273-2.694,3.59-2.166-.58,7.2-.58,7.2,7.29.1,7.606-.219-1.48-7.241-.739-7.241,2.964,2.008,2.964,2.008l6.832-10.886-1.5-.365-11.194,6.022-11.97-5.89Z" transform="translate(-3319.178 -1881.089)" fill="#bdccd4"/>
    <path id="Path_1770" data-name="Path 1770" d="M4903.4,3164.357l4.544,3.049-1.409,8.092,6.127-.341-1.53-7.361,3.767-3.439-1.77-1.667h-7.961Z" transform="translate(-3447.132 -1952.579)" fill="#d54a41"/>
    <path id="Path_1771" data-name="Path 1771" d="M4789.8,2977.778l-5.619,5.348s5.726,10.184,6.041,10.184,4.86-5.615,4.86-5.615l2.908-.051,4.595,4.82,5.336-9.444-5.443-5.77s-4.648,8.98-5.494,9.191-.851.317-1.534-.211S4789.8,2977.778,4789.8,2977.778Z" transform="translate(-3334.093 -1776.754)" fill="#d5e1e8"/>
    <path id="Path_1772" data-name="Path 1772" d="M4821.642,2349.908c0,8.682-5.166,15.719-11.537,15.719s-11.535-7.037-11.535-15.719,5.163-15.719,11.535-15.719S4821.642,2341.227,4821.642,2349.908Z" transform="translate(-3347.737 -1167.034)" fill="#f09959"/>
    <path id="Path_1773" data-name="Path 1773" d="M4709.608,2577.584c1.078,2.271.725,4.7-.79,5.416s-3.616-.539-4.7-2.811-.726-4.7.789-5.416S4708.529,2575.313,4709.608,2577.584Z" transform="translate(-3257.593 -1394.952)" fill="#f09959"/>
    <path id="Path_1774" data-name="Path 1774" d="M5199.332,2577.584c-1.079,2.271-.725,4.7.788,5.416s3.617-.539,4.7-2.811.727-4.7-.788-5.416S5200.412,2575.313,5199.332,2577.584Z" transform="translate(-3727.128 -1394.952)" fill="#f09959"/>
    <path id="Path_1775" data-name="Path 1775" d="M4932.584,2761.76s-2.291,3.711-5.117,3.711-5.117-3.711-5.117-3.711Z" transform="translate(-3465.099 -1572.436)" fill="#fff"/>
    <path id="Path_1776" data-name="Path 1776" d="M4802.265,2312.973c4.753-3.328,6.892-2.774,10.458,2.694s7.845,5.564,7.845,5.564l.554-5.67s-5.312-10.274-12.442-8.927-11.184,7.766-11.184,7.766-.348,12.03.648,12.441,1.108-3.883,1.821-4.754-.713-4.993.238-6.894S4802.265,2312.973,4802.265,2312.973Z" transform="translate(-3346.663 -1140.792)" fill="#2e2d3d"/>
    <path id="Path_1777" data-name="Path 1777" d="M5185.48,2550.33c1.66,1.818,1.031,9.033,1.9,8.954s1.188-6.894.951-7.606S5185.48,2550.33,5185.48,2550.33Z" transform="translate(-3714.587 -1371.968)" fill="#2e2d3d"/>
    <path id="Path_1778" data-name="Path 1778" d="M4485.006,3750.465h-52.989a3.388,3.388,0,0,1,0-6.775h52.989a3.388,3.388,0,1,1,0,6.775Z" transform="translate(-2996.977 -2503.456)" fill="#99bbeb"/>
    <path id="Path_1779" data-name="Path 1779" d="M4599,3951.216h-39.8a3.388,3.388,0,1,1,0-6.776H4599a3.388,3.388,0,0,1,0,6.776Z" transform="translate(-3117.562 -2693.798)" fill="#99bbeb"/>
    <path id="Path_1780" data-name="Path 1780" d="M4132.181,4725.19h-96.815a1.965,1.965,0,1,1,0-3.93h96.815a1.965,1.965,0,1,1,0,3.93Z" transform="translate(-2622.239 -3430.344)" fill="#99bbeb"/>
    <path id="Path_1781" data-name="Path 1781" d="M4132.181,4901.4h-96.815a1.965,1.965,0,1,1,0-3.93h96.815a1.965,1.965,0,1,1,0,3.93Z" transform="translate(-2622.239 -3597.417)" fill="#99bbeb"/>
    <path id="Path_1782" data-name="Path 1782" d="M4132.181,5077.592h-96.815a1.966,1.966,0,0,1,0-3.932h96.815a1.966,1.966,0,0,1,0,3.932Z" transform="translate(-2622.239 -3764.472)" fill="#99bbeb"/>
    <path id="Path_1783" data-name="Path 1783" d="M4275.3,2071.49a1.038,1.038,0,0,0-1.036,1.036V2136.8a1.037,1.037,0,0,0,1.036,1.037h69.733a1.038,1.038,0,0,0,1.037-1.037v-64.269a1.038,1.038,0,0,0-1.037-1.036Zm69.733,68.432H4275.3a3.131,3.131,0,0,1-3.127-3.127v-64.269a3.131,3.131,0,0,1,3.127-3.127h69.733a3.131,3.131,0,0,1,3.127,3.127V2136.8A3.13,3.13,0,0,1,4345.03,2139.923Z" transform="translate(-2848.627 -915.973)" fill="#99bbeb"/>
    <path id="Path_1784" data-name="Path 1784" d="M4245.093,4245.57l2.019,4.091,4.513.656-3.265,3.184.772,4.5-4.039-2.123-4.038,2.123.771-4.5-3.266-3.184,4.515-.656Z" transform="translate(-2816.761 -2979.316)" fill="#99bbeb"/>
    <path id="Path_1785" data-name="Path 1785" d="M4564.032,4245.57l2.02,4.091,4.515.656-3.267,3.184.771,4.5-4.039-2.123L4560,4258l.772-4.5-3.267-3.184,4.515-.656Z" transform="translate(-3119.165 -2979.316)" fill="#99bbeb"/>
    <path id="Path_1786" data-name="Path 1786" d="M4882.963,4245.57l2.02,4.091,4.515.656-3.267,3.184.771,4.5-4.039-2.123-4.037,2.123.771-4.5-3.267-3.184,4.515-.656Z" transform="translate(-3421.561 -2979.316)" fill="#99bbeb"/>
    <path id="Path_1787" data-name="Path 1787" d="M5201.894,4245.57l2.017,4.091,4.516.656-3.267,3.184.771,4.5-4.037-2.123-4.038,2.123.771-4.5-3.267-3.184,4.516-.656Z" transform="translate(-3723.954 -2979.316)" fill="#99bbeb"/>
    <path id="Path_1788" data-name="Path 1788" d="M5525.915,4245.57l2.017,4.091,4.516.656-3.268,3.184.772,4.5-4.037-2.123-4.039,2.123.772-4.5-3.268-3.184,4.515-.656Z" transform="translate(-4031.175 -2979.316)" fill="#99bbeb"/>
    <path id="Path_1789" data-name="Path 1789" d="M7075.82,5519.055H6916.532a1.732,1.732,0,0,1-1.732-1.733v-2.6a1.732,1.732,0,0,1,1.732-1.733H7075.82a1.73,1.73,0,0,1,1.731,1.733v2.6A1.73,1.73,0,0,1,7075.82,5519.055Z" transform="translate(-5354.247 -4181.025)" fill="#2e5b9a"/>
    <path id="Path_1790" data-name="Path 1790" d="M10414.039,3741.986c2.158,7.608-3.113,15.45-8.918,17.1s-9.95-3.523-12.11-11.132.8-15.112,6.6-16.76S10411.879,3734.376,10414.039,3741.986Z" transform="translate(-8651.455 -2491.299)" fill="#f09959"/>
    <path id="Path_1791" data-name="Path 1791" d="M10060.545,6789.08s14.883,23.114,16.892,24.118,7.038,1.256,5.153,5.025-2.64,18.593-4.4,19.345-16.834,2.513-14.569,0,3.65-1.256,4.793-5.779,2.743-13.063.609-14.823-15.2-17.587-15.2-17.587Z" transform="translate(-8330.521 -5390.954)" fill="#f09959"/>
    <path id="Path_1792" data-name="Path 1792" d="M8185.142,6980.52s-18.089,29.816-21.438,32.5-14.405,6.7-5.36,7.369,13.4-3.014,19.095-4.688,12.73-2.68,10.05-7.037-1.567-13.861,4.21-19.891S8185.142,6980.52,8185.142,6980.52Z" transform="translate(-6530.017 -5572.468)" fill="#f09959"/>
    <path id="Path_1793" data-name="Path 1793" d="M8690.76,5646.6s-44.782-1.17-62.537,13.4c-10.385,15.746-35.508,62.2-37.463,67.322,1.341,1.341,8.878,3.759,12.229,3.424,9.883-11.785,22.946-21.971,28.141-31.215,6.4-11.39,8.375-17.085,18.761-18.089s33.837-4.357,40.87-4.357S8690.76,5646.6,8690.76,5646.6Z" transform="translate(-6943.314 -4307.685)" fill="#6791c9"/>
    <path id="Path_1794" data-name="Path 1794" d="M10921.977,6466.631h-2.342L10902.8,6396.4h5.165Z" transform="translate(-9135.481 -5018.632)" fill="#2e5b9a"/>
    <path id="Path_1795" data-name="Path 1795" d="M9916.41,6421.262h2.348l19.318-72.712h-5.169Z" transform="translate(-8200.234 -4973.263)" fill="#2e5b9a"/>
    <path id="Path_1796" data-name="Path 1796" d="M9401.335,5587.86l-26.033,4.495s-34.6.317-50.412,3.262c-14.389,2.68-16.511,19.028,0,41.54,9.377,12.791,17.308,22.99,33.519,34.491,4.125-3.027,5.707-4.172,6.843-11.459-1.172-1.611-4.209-11.681-5.15-13.651-8.974-18.748-20.941-25.565-21.109-27.41,2.012-3.266,53.242,17.023,63.428,5.089C9412.144,5612.82,9401.335,5587.86,9401.335,5587.86Z" transform="translate(-7628.383 -4252.013)" fill="#75a1de"/>
    <path id="Path_1797" data-name="Path 1797" d="M10424.879,4445.568a27.228,27.228,0,0,0-20.369,5.069c-5.71,5.818-12.163,15.412-11.77,31.238.5,20.1-3.113,21.39.657,26.917,15.716,6.491,42.6,34.377,36.271,4.482-4.584-21.649,10.055-37.785-1.758-61.8C10426.954,4449.521,10425.752,4447.625,10424.879,4445.568Z" transform="translate(-8650.842 -3168.663)" fill="#f37168"/>
    <path id="Path_1798" data-name="Path 1798" d="M10392.769,4581.256c-.3,10.48-1.786,13.565-.654,16.852,6.4.654,18.129,3.217,21.058,7.318,3.352,4.689,6.7,5.36,5.138,1.9s-5.7-8.375.668-25.235,9.381-28.254,3.127-39.979Z" transform="translate(-8650.876 -3260.481)" fill="#d54a41"/>
    <path id="Path_1799" data-name="Path 1799" d="M10659.9,4062.8a81.8,81.8,0,0,1-5.257-21.227l-11.057,3.266s6.283,14.07.253,19.094a57.74,57.74,0,0,0-4.31,3.936A27.234,27.234,0,0,1,10659.9,4062.8Z" transform="translate(-8885.861 -2785.893)" fill="#f09959"/>
    <path id="Path_1800" data-name="Path 1800" d="M10729.442,4055.05c-.659-.583-1.477-1.31-2.34-2.07l-9.012,2.664-.021.049a36.82,36.82,0,0,1,2.818,11.012c2.684-1.63,5.625-4.288,8.992-8.931C10729.7,4056.744,10729.552,4055.825,10729.442,4055.05Z" transform="translate(-8960.33 -2796.711)" fill="#e38540"/>
    <path id="Path_1801" data-name="Path 1801" d="M9654.331,4505.832c-11.387,3.982-10.125,15.977-20.6,33.666-5.428,9.156-10.465,9.018-10.465,9.018a242.241,242.241,0,0,1-28.1-1.779c-9.632-1.176-10.244,1.691-3.544,4.085,13.51,4.831,27.534,10.032,38.836,8.776s30.646-30.1,31.642-37.611C9663.482,4511.6,9660.066,4503.827,9654.331,4505.832Z" transform="translate(-7888.066 -3225.784)" fill="#f09959"/>
    <path id="Path_1802" data-name="Path 1802" d="M10037.493,5065.446c-.712,0-1.437-.008-2.179-.027a108.07,108.07,0,0,1-20.669-2.544c-5.929-1.2-9.191-1.867-12.991-.053a2.926,2.926,0,0,1-2.523-5.28c5.564-2.661,10.229-1.714,16.678-.4a103,103,0,0,0,19.65,2.429c9.81.245,15.785-1.209,18.817-4.572,2.7-3,3.491-8.027,2.49-15.834-.346-2.674-.689-4.9-.994-6.858-.853-5.533-1.421-9.189-.717-14.839.647-5.248,2.383-12.235,6.413-25.79a2.927,2.927,0,0,1,5.611,1.666c-7.5,25.257-7.122,27.715-5.522,38.07.309,2,.66,4.258,1.013,7,1.238,9.628-.014,16.145-3.944,20.5C10054.581,5063.4,10048.013,5065.446,10037.493,5065.446Z" transform="translate(-8277.088 -3684.751)" fill="#2e5b9a"/>
    <path id="Path_1803" data-name="Path 1803" d="M8186.367,7465.209c-12,5.871-18.465,9.236-22.314,8.914-.907-.075-1.659-.167-2.291-.268-4.281,2.532-11.114,5.521-3.426,6.09,9.046.671,13.4-3.015,19.095-4.689s12.73-2.679,10.05-7.036A9.167,9.167,0,0,1,8186.367,7465.209Z" transform="translate(-6530.009 -6032.027)" fill="#d54a41"/>
    <path id="Path_1804" data-name="Path 1804" d="M10253.832,7263.729c-.294,9.5-1.6,18.92-7.411,20.7a9.77,9.77,0,0,1-4.19.375c-.918,1.13-2.029,1.143-3.525,2.805-2.265,2.513,12.813.755,14.569,0s2.513-15.576,4.4-19.345C10259.22,7265.168,10256.106,7264.448,10253.832,7263.729Z" transform="translate(-8505.6 -5840.994)" fill="#d54a41"/>
    <path id="Path_1805" data-name="Path 1805" d="M8610.146,4815.438h-38.132a2.929,2.929,0,0,1-2.655-1.693l-15.408-33.165a2.926,2.926,0,1,1,5.308-2.467l14.622,31.472h36.266a2.927,2.927,0,1,1,0,5.854Z" transform="translate(-6908.155 -3482.643)" fill="#75a1de"/>
    <path id="Path_1806" data-name="Path 1806" d="M9176.661,5231.989c-7.7-.11-15.348-4.7-19.144-4.035s-16.192,9.269-14.627,9.6,11.388-4.758,11.722-4.835,2.459,3.526,7.707,4.852.036-3.935,16.3.98c10.58,3.193-1.963-6.566-1.963-6.566Z" transform="translate(-7466.69 -3910.704)" fill="#f09959"/>
    <path id="Path_1807" data-name="Path 1807" d="M10533.475,4275.04l1.132,9.122s-9.969.594-14.933,3.385-12.283,10.858-12.283,10.858l5.986-10.3.861-6.588Z" transform="translate(-8760.574 -3007.258)" fill="#f2e5de"/>
    <path id="Path_1808" data-name="Path 1808" d="M9866.567,4487.093c-7.4-1.388-10.829,5.248-15.632,16.08s-13,23.988-14.628,25.683-27.474,0-27.474,0-.781,7.483,0,8.376,5.25.781,5.25.781,1.787,1.428,3.461,2.557,15.855,3.25,22.448,2.917,12.619-.894,13.512-1.9,18.872-28.7,19.984-38.638S9870.348,4487.8,9866.567,4487.093Z" transform="translate(-8097.906 -3208.143)" fill="#f2e5de"/>
    <path id="Path_1809" data-name="Path 1809" d="M10289.209,3519.333c-14,.67-11.807,21.741-11.807,21.741s3.636,1.124,11.258-.133c-.584-2.261-.335-8.04-.335-8.04a52.342,52.342,0,0,0,2.011,7.538c1.61.739,3.436.083,6.533-.666,1.592,6.7,6.091,9.524,9.167,10.492,3.4,1.07,7,2.345,11.021.335s1.813-22.557-.328-26.688c-3.2-6.2-8.528-11.753-17.741-8.822A68.57,68.57,0,0,0,10289.209,3519.333Z" transform="translate(-8542.392 -2285.944)" fill="#303c60"/>
    <path id="Path_1810" data-name="Path 1810" d="M10977.3,4066.777l5.726,8.364s-6.343,15.856,12.115,23.04c14.453,5.628,12.753,15.541,6.22,25.51s3.9,18.676,3.9,18.676,1.6-11.043,15.642-13.128c19.151-2.843,24.573-28.554,10.269-41.411-11.835-10.639-15.437-1.829-23.449-11.376s-23.139-3.1-23.139-3.1l-5.546-8.084-1.74,1.507Z" transform="translate(-9206.12 -2808.364)" fill="#303c60"/>
    <path id="Path_1811" data-name="Path 1811" d="M11161.712,4194.949a.5.5,0,0,1-.244-.062.516.516,0,0,1-.205-.691c4.816-8.8.888-19.462-1.088-22.351-.208-.305-.409-.616-.618-.944-1.94-3.031-4.359-6.8-17.257-9.125-3.1-.56-5.616-2.405-8.279-4.359-5.5-4.036-11.73-8.612-25.271-2.379a.51.51,0,0,1-.43-.925c14.086-6.483,20.578-1.719,26.3,2.484,2.563,1.883,4.982,3.661,7.861,4.178,13.33,2.4,15.879,6.38,17.929,9.578.205.322.4.625.6.918,2.064,3.026,6.185,14.2,1.142,23.415A.512.512,0,0,1,11161.712,4194.949Z" transform="translate(-9330.067 -2889.583)" fill="#303c60"/>
    <path id="Path_1812" data-name="Path 1812" d="M10644.665,3895.311a20.2,20.2,0,0,1-2.973-.239c-4.9-.735-11.476-3.519-11.989-19.157a.509.509,0,1,1,1.018-.033c.209,6.445,1.492,11.215,3.8,14.175a10.682,10.682,0,0,0,7.323,4.008c4.532.679,7.539-.158,8.932-2.489a.509.509,0,1,1,.873.523C10650.372,3894.236,10648.027,3895.311,10644.665,3895.311Z" transform="translate(-8876.545 -2628.327)" fill="#303c60"/>
    <path id="Path_1813" data-name="Path 1813" d="M7244.069,5704.563h3.763l14.64-111.9h-8.278Z" transform="translate(-5666.445 -4256.564)" fill="#2e5b9a"/>
    <path id="Path_1814" data-name="Path 1814" d="M9370.493,5704.563h-3.764l-14.64-111.9h8.279Z" transform="translate(-7665.171 -4256.564)" fill="#2e5b9a"/>
    <path id="Path_1815" data-name="Path 1815" d="M12429.173,5929.129c6.514,5.945,3.683,11.888-1.131,22.93s-5.661,51.8-5.661,51.8l3.966-.567s-.569-41.9,4.812-53.216,7.643-16.985,12.454-13.306S12429.173,5929.129,12429.173,5929.129Z" transform="translate(-10576.278 -4575.588)" fill="#74b570"/>
    <path id="Path_1816" data-name="Path 1816" d="M12478.078,5444.72c.792-3.522,5.485-7.335,11.765-10.567-.932,5.194-3.925,13.691-.827,15.434,4.18,2.35.4-9.512,2.02-16.032a77.562,77.562,0,0,1,19.521-6.4.344.344,0,0,0-.024.07c-3.687,9.343-8.494,13.022-6.515,14.438,1.492,1.066,6.345-9.725,12.759-15.257,4.813-.257,8.883.4,11.295,2.3,3.723,2.948,6.221,5.562,2.475,14.537a16.789,16.789,0,0,1-8.129,2.948c-8.489.849-12.454,1.133-6.509,3.963,2.907,1.386,7.79-.08,11.745-.97-1.282,2.365-2.862,5.041-4.777,8.09a30.071,30.071,0,0,1-3.98,5.063c-2.732.524-5.121.53-6.385-.01-3.965-1.7-14.154-7.078-16.7-4.815-2.493,2.218,18.872,3.621,17.391,9.254-10.354,5.967-22.2,3.128-24.3-2.352C12486.088,5457.056,12475.7,5455.325,12478.078,5444.72Z" transform="translate(-10628.754 -4098.876)" fill="#9cd499"/>
    <path id="Path_1817" data-name="Path 1817" d="M12311.439,6490.775c-11.322-8.494-22.933-.567-28.872,8.491s-1.7,29.44-1.7,29.44,2.264,0,2.264-.849-6.23-24.061,8.493-34.536c9.208-6.551,15.85-3.4,16.7-.282s-3.681,8.775-3.681,8.775Z" transform="translate(-10440.709 -5104.679)" fill="#74b570"/>
    <path id="Path_1818" data-name="Path 1818" d="M12385.9,6220.33c11.321,0,15.007,17.551,11.889,27.742s-7.361,29.155-7.361,29.155l-2.827-2.83s10.757-26.61,8.209-38.5-8.778-13.872-9.909-13.872S12385.9,6220.33,12385.9,6220.33Z" transform="translate(-10541.209 -4851.691)" fill="#9cd499"/>
    <path id="Path_1819" data-name="Path 1819" d="M12526.312,6711.1a8.174,8.174,0,0,1,2.978-2.5,22.951,22.951,0,0,1-.589,2.426c-1.42,4.644-3.071,11.107-4.452,16.771-.125-.726-.314-1.844-.613-3.566a11.79,11.79,0,0,1-.166-1.319A110.414,110.414,0,0,0,12526.312,6711.1Z" transform="translate(-10672.125 -5314.646)" fill="#74b570"/>
    <path id="Path_1820" data-name="Path 1820" d="M12530.949,6466.654c21.516-9.059,10.18-21.491,29.147-13.281a3.3,3.3,0,1,1-1.417,4.53c-5.66-.849-3.681,3.68,5.66,4.813a21.015,21.015,0,0,1,4.38.924c4.448,8.548,6.453,19.795-2.963,23.7a21.332,21.332,0,0,1-6.7,1.375c-2.907-2.311.708-15.677-3.771-13.83-4.3,1.771,1.347,11.458.573,13.9a62.079,62.079,0,0,1-13.44-1.884,6.688,6.688,0,0,1-3.551-4.089c-1.417-5.943,7.925-9.624,8.209-14.72.258-4.685-3.422,10.307-13.183,12.513C12525.063,6476.483,12520.895,6470.889,12530.949,6466.654Z" transform="translate(-10673.668 -5070.11)" fill="#9cd499"/>
    <path id="Path_1821" data-name="Path 1821" d="M11710.778,6074.36c2.265-4.812-3.681-5.943-3.4-2.265.25,3.262.275,11.188-3.067,13.346a52.468,52.468,0,0,1-19.544-6.49,2.375,2.375,0,0,1,.249-1.477c2.548-5.1,18.962-9.342,13.869-11.04-4.06-1.353-11.172,6.631-16.9,10.653-3.44-2.611-5.745-5.724-5.745-9.2,0-4.7,5.716-10.025,13.107-12.572,3.325.337,6.414,2.156,11.236,4.891,7.131,4.038,5.48-2.493-1.257-6.368a20.3,20.3,0,0,1,15.895,8.726s-.4,2.538,2.28,6.466c7.331,10.712-1.128,16.967-11.237,16.559C11706.837,6082.768,11709.212,6077.685,11710.778,6074.36Z" transform="translate(-9868.822 -4693.833)" fill="#9cd499"/>
    <path id="Path_1822" data-name="Path 1822" d="M12838.06,6546.449c5.536,4.277,11.685,9.279,19.236,12.676s6.04,14.469,6.04,14.469,1.132-9.562-5.162-12.833-10.439-7.171-15.222-7.927a68.927,68.927,0,0,1-7.423-1.509s1.507-3.019.63-4.152S12838.06,6546.449,12838.06,6546.449Z" transform="translate(-10968.007 -5160.833)" fill="#74b570"/>
    <path id="Path_1823" data-name="Path 1823" d="M12667.329,5578.87c-20.253,5.41-35.1,18.371-37.87,21.515s-2.768,4.026-2.768,4.026l2.14,4.026,1.008-.5s-1.637-3.4,2.643-7.8c7.377-7.595,16.354-13.588,22.519-16.23S12667.329,5578.87,12667.329,5578.87Z" transform="translate(-10769.996 -4243.489)" fill="#74b570"/>
    <path id="Path_1824" data-name="Path 1824" d="M12149.864,7234.1h7.741a9.963,9.963,0,0,0,9.964-9.965V7206.35H12139.9v17.782A9.967,9.967,0,0,0,12149.864,7234.1Z" transform="translate(-10308.441 -5786.589)" fill="#75a1de"/>
    <path id="Path_1825" data-name="Path 1825" d="M12139.9,7269.629h27.669v-1.949H12139.9Z" transform="translate(-10308.443 -5844.739)" fill="#fff"/>
    <path id="Path_1826" data-name="Path 1826" d="M12139.9,7337.335h27.669v-1.146H12139.9Z" transform="translate(-10308.443 -5909.697)" fill="#fff"/>
    <path id="Path_1827" data-name="Path 1827" d="M2551.2,7082.893h6.6a2.523,2.523,0,0,0,2.524-2.523v-5.437a2.522,2.522,0,0,0-2.524-2.522h-6.6a2.523,2.523,0,0,0-2.524,2.522v5.438A2.523,2.523,0,0,0,2551.2,7082.893Z" transform="translate(-1214.496 -5659.594)" fill="#9ec8ff"/>
    <path id="Path_1828" data-name="Path 1828" d="M2142.645,7082.893h6.6a2.524,2.524,0,0,0,2.524-2.523v-5.437a2.523,2.523,0,0,0-2.524-2.522h-6.6a2.523,2.523,0,0,0-2.524,2.522v5.438A2.524,2.524,0,0,0,2142.645,7082.893Z" transform="translate(-827.118 -5659.594)" fill="#9ec8ff"/>
    <path id="Path_1829" data-name="Path 1829" d="M1734.075,7082.893h6.6a2.523,2.523,0,0,0,2.524-2.523v-5.437a2.523,2.523,0,0,0-2.524-2.522h-6.6a2.523,2.523,0,0,0-2.525,2.522v5.438A2.524,2.524,0,0,0,1734.075,7082.893Z" transform="translate(-439.731 -5659.594)" fill="#9ec8ff"/>
    <path id="Path_1830" data-name="Path 1830" d="M13215.676,3338.937v-6.6a2.523,2.523,0,0,0-2.524-2.525h-5.437a2.523,2.523,0,0,0-2.523,2.525v6.6a2.523,2.523,0,0,0,2.523,2.525h5.437A2.523,2.523,0,0,0,13215.676,3338.937Z" transform="translate(-11318.504 -2111.035)" fill="#9ec8ff"/>
    <path id="Path_1831" data-name="Path 1831" d="M13215.676,3747.506v-6.6a2.523,2.523,0,0,0-2.524-2.524h-5.437a2.523,2.523,0,0,0-2.523,2.524v6.6a2.523,2.523,0,0,0,2.523,2.524h5.437A2.523,2.523,0,0,0,13215.676,3747.506Z" transform="translate(-11318.504 -2498.422)" fill="#9ec8ff"/>
    <path id="Path_1832" data-name="Path 1832" d="M13215.676,4156.076v-6.6a2.523,2.523,0,0,0-2.524-2.524h-5.437a2.523,2.523,0,0,0-2.523,2.524v6.6a2.522,2.522,0,0,0,2.523,2.523h5.437A2.522,2.522,0,0,0,13215.676,4156.076Z" transform="translate(-11318.504 -2885.809)" fill="#9ec8ff"/>
  </g>
</svg>
