<svg xmlns="http://www.w3.org/2000/svg" width="22.124" height="21.124" viewBox="0 0 22.124 21.124">
  <g id="Group_14" data-name="Group 14" transform="translate(0 0)">
    <path id="Path_23" data-name="Path 23" d="M21.427,18.592l-6.956-.587-2.706-6.433a.766.766,0,0,0-.7-.472.747.747,0,0,0-.7.472L7.655,18.005.7,18.592a.755.755,0,0,0-.664.523.786.786,0,0,0,.23.817l5.272,4.557L3.953,31.28a.764.764,0,0,0,1.136.83L11.063,28.5l5.974,3.612a.748.748,0,0,0,.4.115.8.8,0,0,0,.447-.14.742.742,0,0,0,.294-.791L16.59,24.5l5.272-4.557a.787.787,0,0,0,.23-.817A.751.751,0,0,0,21.427,18.592Zm-6.19,5.055a.763.763,0,0,0-.242.753l1.276,5.476-4.812-2.91a.748.748,0,0,0-.4-.115.717.717,0,0,0-.4.115l-4.812,2.91L7.131,24.4a.763.763,0,0,0-.242-.753l-4.25-3.676,5.6-.472a.763.763,0,0,0,.638-.46l2.183-5.195,2.183,5.182a.735.735,0,0,0,.638.46l5.6.472Z" transform="translate(-0.001 -11.1)" fill="#501e78"/>
  </g>
</svg>
