<svg xmlns="http://www.w3.org/2000/svg" width="22.132" height="21.124" viewBox="0 0 22.132 21.124">
  <g id="Group_13" data-name="Group 13" transform="translate(0 0)">
    <path id="Path_22" data-name="Path 22" d="M22.091,19.2a.755.755,0,0,0-.664-.523l-6.956-.587-2.706-6.433a.766.766,0,0,0-.7-.472.747.747,0,0,0-.7.472L7.655,18.088.7,18.675a.755.755,0,0,0-.664.523.786.786,0,0,0,.23.817l5.272,4.557-1.583,6.79a.764.764,0,0,0,1.136.83l5.974-3.612,5.974,3.612a.748.748,0,0,0,.4.115.8.8,0,0,0,.447-.14.742.742,0,0,0,.294-.791l-1.583-6.79,5.272-4.557A.767.767,0,0,0,22.091,19.2Z" transform="translate(-0.001 -11.183)" fill="#501e78"/>
  </g>
</svg>
