<svg xmlns="http://www.w3.org/2000/svg" width="632.193" height="331.17" viewBox="0 0 632.193 331.17">
  <g id="lead_illustrator" data-name="lead illustrator" transform="translate(-2488.865 -3194.679)">
    <path id="Path_485" data-name="Path 485" d="M3272.181,4993.237l-215.6,180.372-113.437-96.636c-21.234,18.7-54.023,47.556-87.011,76.514-22.543,19.791-40.794,35.781-55.588,48.725l-103.032-.121c28.572-24.325,143.614-125.419,221.117-193.739l23.7-20.89L3057,5085.151l168.311-140.812Z" transform="translate(-208.645 -1679.168)" fill="#d5e5fb"/>
    <path id="Path_486" data-name="Path 486" d="M9949.832,4425.113l102.682,103,29.006-117.66Z" transform="translate(-6960.462 -1182.124)" fill="#d5e5fb"/>
    <path id="Path_487" data-name="Path 487" d="M4786.889,7204.665a190.543,190.543,0,0,0-2.2-23.356c-1.578-9.12-3-14.367-3.013-14.422-.208-.8-3.21-4.05-9.884-3.948s-6.04,4.355-6.04,4.355h0a1.414,1.414,0,0,0,.049.378,204.273,204.273,0,0,1,5.924,51.106c0,.4-.048,1.1-.02,1.561,0,0,15.464.4,15.468,0C4787.711,7217.834,4787.45,7210.891,4786.889,7204.665Z" transform="translate(-2134.136 -3744.652)" fill="#b7d3f3"/>
    <path id="Path_488" data-name="Path 488" d="M4812.118,7218.636c0,.4-.215.72-.473.72h-.005c-.257-.005-.463-.326-.466-.72h-13.252c0,.4-.215.72-.472.72h-.006c-.263-.005-.47-.337-.467-.739a200.006,200.006,0,0,0-1.1-22.641,177.844,177.844,0,0,0-5.065-28.3,1.438,1.438,0,0,1-.047-.378s-.633-4.255,6.04-4.355,9.675,3.146,9.883,3.948c.013.041.816,3.011,1.885,8.354.354,1.769.736,3.8,1.129,6.068a190.558,190.558,0,0,1,2.2,23.356C4812.459,7210.891,4812.657,7216.131,4812.118,7218.636Z" transform="translate(-2157.421 -3744.652)" fill="#d2e3fc"/>
    <path id="Path_489" data-name="Path 489" d="M4866.773,7923.253h51.957s-1.209-4.9-31.3-4.168C4866.136,7919.6,4866.773,7923.253,4866.773,7923.253Z" transform="translate(-2228.199 -4448.549)" fill="#c5dcf8"/>
    <path id="Path_490" data-name="Path 490" d="M4805.521,8041.855c6.024-30.5,4.476-49.212,4.468-49.446-.016-.473.851-.9,1.315-.912s2.552-.139,2.791.263c.316.524,1.528,23.583-7.449,50.1Z" transform="translate(-2171.175 -4516.007)" fill="#b7d3f3"/>
    <path id="Path_491" data-name="Path 491" d="M5389.651,8041.855c-6.024-30.5-4.475-49.212-4.466-49.446.013-.473-.853-.9-1.316-.912s-2.55-.139-2.791.263c-.314.524-1.53,23.583,7.45,50.1Z" transform="translate(-2706.794 -4516.007)" fill="#b7d3f3"/>
    <path id="Path_492" data-name="Path 492" d="M5528.953,8041.855c-6.023-30.5-4.474-49.212-4.466-49.446.015-.473-.851-.9-1.316-.912s-2.549-.139-2.791.263c-.315.524-1.528,23.583,7.451,50.1Z" transform="translate(-2836.483 -4516.007)" fill="#b7d3f3"/>
    <path id="Path_493" data-name="Path 493" d="M4945.77,8041.855c6.025-30.5,4.475-49.212,4.468-49.446-.015-.473.85-.9,1.315-.912s2.551-.139,2.791.263c.316.524,1.529,23.583-7.45,50.1Z" transform="translate(-2301.746 -4516.007)" fill="#b7d3f3"/>
    <path id="Path_494" data-name="Path 494" d="M4904.851,7964.969h-51.957a1.067,1.067,0,0,1-1.064-1.064v-.7a1.067,1.067,0,0,1,1.064-1.064h51.957a1.067,1.067,0,0,1,1.065,1.064v.7A1.067,1.067,0,0,1,4904.851,7964.969Z" transform="translate(-2214.289 -4488.702)" fill="#b7d3f3"/>
    <path id="Path_495" data-name="Path 495" d="M5553.4,7272.76l17.269-3.741,1.019,2.479s-19.059,11.34-20.842,10.784S5553.4,7272.76,5553.4,7272.76Z" transform="translate(-2864.665 -3843.414)" fill="#ffb27d"/>
    <path id="Path_496" data-name="Path 496" d="M5360.81,8269.312a1.533,1.533,0,0,0-.274,1.64l.006.008c.395,1.092,1.7,2.317,3.223,3.534q.293.236.519.434c.038.032.079.068.114.1l.091.079c1.416,1.306.883,1.605,3.428,4.255,2.9,3.021,4.9,3.076,5.468,2.8.482-.235-.5-1.837-1.577-3.637-.052-.087-.1-.175-.159-.263l-.43-.722c-1.268-2.168-.941-3.186-.643-6.408.246-2.62,4.076-14.638,4.076-14.638l-5.561-.959s-1.676,9.571-3.522,11.043c-.984.786-2.091.8-3.039,1.378-.067.041-.134.083-.2.126A7.264,7.264,0,0,0,5360.81,8269.312Z" transform="translate(-2687.774 -4761.853)" fill="#ffb27d"/>
    <path id="Path_497" data-name="Path 497" d="M5360.81,8436.852a1.534,1.534,0,0,0-.274,1.64s0,0,.006.009a11.785,11.785,0,0,0,3.228,3.522c.192.159.363.308.514.443.038.032.079.069.114.105s.061.056.091.078c1.416,1.308.883,1.606,3.428,4.256,2.9,3.021,4.9,3.075,5.468,2.8.482-.235-.5-1.837-1.577-3.636a12.406,12.406,0,0,1-5.175-3.814c-1.746-2.229-2.911-5.1-4.1-6.755-.067.04-.134.083-.2.126A7.264,7.264,0,0,0,5360.81,8436.852Z" transform="translate(-2687.774 -4929.394)" fill="#1c468a"/>
    <path id="Path_498" data-name="Path 498" d="M5955.95,8243.007c.343,1.718,2.791,1.432,5.525.762s2.083.126,5.975-.3,5.071-1.881,5.188-2.46c.107-.513-1.815-.693-3.879-.934-.258-.026-.521-.059-.78-.092-2.328-.292-4.035-1.793-6.147-3.029-2-1.168-5-5.93-5-5.93l-5.336.423s2.8,4.253,3.885,6.1a6.457,6.457,0,0,1,.523,3.636A6.89,6.89,0,0,0,5955.95,8243.007Z" transform="translate(-3238.068 -4739.024)" fill="#ffb27d"/>
    <path id="Path_499" data-name="Path 499" d="M6020.409,8365.878c2.732-.668,2.083.125,5.974-.3s5.07-1.883,5.188-2.46c.107-.516-1.815-.7-3.879-.934l-.019.041a10.972,10.972,0,0,1-5.572,1.73c-2.639.065-5.436-.693-7.259-.662a6.935,6.935,0,0,0,.041,1.826C6015.225,8366.832,6017.673,8366.546,6020.409,8365.878Z" transform="translate(-3297 -4861.133)" fill="#1c468a"/>
    <path id="Path_500" data-name="Path 500" d="M5843.911,7219.151s1.272-3.116,2.672-3.242,5.849-.827,6.166-.19a4.394,4.394,0,0,1-.955,3.75c-.954.827-6.864,2.161-6.864,2.161Z" transform="translate(-3137.903 -3793.546)" fill="#ffb27d"/>
    <path id="Path_501" data-name="Path 501" d="M5472.687,7794.882l-11.5,30.95a10.563,10.563,0,0,1-3.461-.317,14.9,14.9,0,0,1-3.346-1.63s2.853-29.718,8.086-35.9S5472.687,7794.882,5472.687,7794.882Z" transform="translate(-2775.255 -4325.021)" fill="#163560"/>
    <path id="Path_502" data-name="Path 502" d="M4974.653,7605.7s33.047-11.174,40.418-8.8,29.5,46.4,29.5,46.4a4.278,4.278,0,0,1-1.861,1.176,17.57,17.57,0,0,1-4.337.445s-19.972-17.117-22.349-22.109-3.326-9.748-5.705-9.274-30.669,11.651-37.089,5-4.74-15.308-4.74-15.308Z" transform="translate(-2322.71 -4148.363)" fill="#1c468a"/>
    <path id="Path_503" data-name="Path 503" d="M4963.464,6569.639a8.016,8.016,0,0,0-4.337-.831,2.041,2.041,0,0,1,.915-.435,6.728,6.728,0,0,0-2.4.626c-10.327-3.979-11.951,11.229-11.734,14.762s.241,7.6-4.915,10.769c-10.144,6.234-1.585,17.119-1.585,17.119.08.046,4.72,7.916,4.72,7.916-.26-2.855,12.913-17.922,19.785-22.435,1.674-2.464,2.269-6.814,2.312-7.156a18.785,18.785,0,0,1-1.406,6.477C4970.64,6591.094,4967.25,6571.789,4963.464,6569.639Z" transform="translate(-2292.681 -3191.092)" fill="#b5453c"/>
    <path id="Path_504" data-name="Path 504" d="M5202.854,6851.494c.034.015-3.318,1.756-5.84,1.066-2.374-.646-3.923-3.722-3.891-3.73,1.006-.2,1.295-1.579,1.273-7.511l.454.088,7.637,1.512s-.174,2.4-.179,4.669C5202.3,6849.488,5202.418,6851.292,5202.854,6851.494Z" transform="translate(-2532.028 -3445.231)" fill="#ffb27d"/>
    <path id="Path_505" data-name="Path 505" d="M5225.8,6844.1s-.174,2.4-.179,4.668c-4.273-.12-6.531-4.019-7.458-6.18Z" transform="translate(-2555.338 -3446.415)" fill="#ed975d"/>
    <path id="Path_506" data-name="Path 506" d="M5168.394,6618.907a22.486,22.486,0,0,1-2.777-6.566c-.383-2.158.717-10.166,8.762-9.011a10.925,10.925,0,0,1,4.534,1.714c1.748,1.177,4.269,3.726,1.449,10.711l-.731,2.361Z" transform="translate(-2506.359 -3223.561)" fill="#b5453c"/>
    <path id="Path_507" data-name="Path 507" d="M5211.479,6665.439s-10.109.167-10.117-6.129-1.316-10.518,5.139-10.89,7.709,2.029,8.224,4.129S5214.109,6665.235,5211.479,6665.439Z" transform="translate(-2539.593 -3265.608)" fill="#ffb27d"/>
    <path id="Path_508" data-name="Path 508" d="M5167.248,6629.439s-2.768,7.387-7.017,8.48-6.091-.046-6.091-.046a12.024,12.024,0,0,0,3.935-7.105s7.084-4.847,9.173-1.328Z" transform="translate(-2495.735 -3246.781)" fill="#b5453c"/>
    <path id="Path_509" data-name="Path 509" d="M5334.129,6639.139a8.9,8.9,0,0,1,2.571,3.253c.5,1.6.732,4.9,1.7,4.792,0,0,2.083-5.021-.26-7.862C5335.651,6636.308,5334.129,6639.139,5334.129,6639.139Z" transform="translate(-2663.303 -3255.881)" fill="#b5453c"/>
    <path id="Path_510" data-name="Path 510" d="M4949.357,6979.95c-1-4.181,2.4-12.293,5.936-19.01,3.213-6.09,6.549-11.029,6.848-10.852,8.474,5.03,9.239.849,9.239.849h0s7.7,1.021,9.876,4.773c2.7,4.655,5.624,17.664,8.526,20.125-.446,1.362-.255,2.088.215,3.778.1.362.214.708.338,1.033a19.64,19.64,0,0,0,1.457,2.989c-1.477.9-4.324,2.6-6.422,1.376-3.2-1.874-5.694-7.571-7.1-9.84-.005-.008-.009-.017-.014-.024-3.052,17.28,1.1,21.214-1,23.035-2.217,1.926-5.388-.915-12.362,2.108-4.575,1.986-10.922,4.853-15.2,5.353-2.241.264-3.914-.128-4.459-1.64C4943.651,6999.6,4951.26,6987.922,4949.357,6979.95Z" transform="translate(-2301.044 -3546.489)" fill="#1c468a"/>
    <path id="Path_511" data-name="Path 511" d="M5316.93,6833.351s.188.8,2.18.677c0,0,1.671-.1,1.619-.983A5.382,5.382,0,0,0,5316.93,6833.351Z" transform="translate(-2647.291 -3437.336)" fill="#fff"/>
    <path id="Path_512" data-name="Path 512" d="M4945.237,7255.609c.545,1.511,2.217,1.9,4.458,1.64,2.958-1.29,15.736-6.24,15.593-9.593-.211-4.966-2.457-5.124-.872-11.255,1.273-4.92-10.533-14.071-12.417-16.061-3.541,6.716-3.638,7.035-2.642,11.215C4951.261,7239.529,4943.653,7251.209,4945.237,7255.609Z" transform="translate(-2301.046 -3798.094)" fill="#163560"/>
    <path id="Path_513" data-name="Path 513" d="M4913.526,6986.153a18.727,18.727,0,0,1,6.18-5.709c-.358-.923,9.531-13.044,9.531-14.922,0-1.9,2.638-15.372,2.638-15.372s-8.239.509-11.092,4.487C4917.215,6959.613,4909.805,6978.761,4913.526,6986.153Z" transform="translate(-2270.779 -3546.552)" fill="#1c468a"/>
    <path id="Path_514" data-name="Path 514" d="M4932.007,7389.11l16.465,4.295-1.545,2.774s-20.038-.14-21.1-1.361S4932.007,7389.11,4932.007,7389.11Z" transform="translate(-2283.081 -3955.217)" fill="#ffb27d"/>
    <path id="Path_515" data-name="Path 515" d="M5426.88,7313.621c1.4,2.27,3.9,7.967,7.1,9.84,2.1,1.225,4.945-.479,6.421-1.376a19.687,19.687,0,0,1-1.457-2.989c-1.178.27-2.612.612-3.541.891C5433.6,7320.531,5426.88,7313.621,5426.88,7313.621Z" transform="translate(-2749.653 -3884.937)" fill="#163560"/>
    <path id="Path_516" data-name="Path 516" d="M5234.536,7435.523s5.171-1.465,6.4-1.122,5.45,3.138,4.859,3.9-4.312-.455-6.022-.225-3.033,1.073-4.265.89a14.193,14.193,0,0,1-2.52-.665Z" transform="translate(-2569.144 -3997.334)" fill="#ffb27d"/>
    <path id="Path_517" data-name="Path 517" d="M5255.38,7423.042a19.415,19.415,0,0,0,3.249-2.04.2.2,0,0,1,.314.035c.193.306.374.894-.514,1.478A4.773,4.773,0,0,1,5255.38,7423.042Z" transform="translate(-2589.989 -3984.854)" fill="#ffb27d"/>
    <path id="Path_518" data-name="Path 518" d="M5276.2,7530.814h-24.122a1.924,1.924,0,0,1,1.923-1.925h22.2Z" transform="translate(-2586.917 -4085.35)" fill="#ed7d2b"/>
    <path id="Path_519" data-name="Path 519" d="M5476.659,7176.061h37.3l-8.945,26.274h-37.54Z" transform="translate(-2787.441 -3756.871)" fill="#ed7d2b"/>
    <path id="Path_520" data-name="Path 520" d="M5521.926,7176.1l-8.948,26.27h-37.537l9.186-26.27Z" transform="translate(-2794.862 -3756.907)" fill="#f99746"/>
    <path id="Path_521" data-name="Path 521" d="M5807.94,7338.368a2.425,2.425,0,0,1-2.237,1.819,1.4,1.4,0,0,1-1.4-1.819,2.429,2.429,0,0,1,2.237-1.818A1.4,1.4,0,0,1,5807.94,7338.368Z" transform="translate(-3100.986 -3906.284)" fill="#f9ddbf"/>
    <path id="Path_522" data-name="Path 522" d="M5692.947,7176.1l-8.948,26.27h-24.86c16.466-5.618,20.851-22.756,21.588-26.27Z" transform="translate(-2965.883 -3756.907)" fill="#ed893e"/>
    <path id="Path_523" data-name="Path 523" d="M4570.8,7691.795a.964.964,0,0,0,.957-.786l4.684-26.549,6.738-38.187,1.884-10.676-4.8-.137-.833,6.2-5.846,43.561-3.466,25.82A.676.676,0,0,0,4570.8,7691.795Z" transform="translate(-1952.017 -4165.946)" fill="#95c0f4"/>
    <path id="Path_524" data-name="Path 524" d="M4705.14,7621.66a6.881,6.881,0,0,1,3.748,4.613l1.884-10.676-4.8-.137Z" transform="translate(-2077.722 -4165.946)" fill="#78acea"/>
    <path id="Path_525" data-name="Path 525" d="M6117.32,7691.795a.966.966,0,0,1-.956-.786l-4.682-26.549-6.738-38.187-1.885-10.676,4.8-.137.833,6.2,5.849,43.561,3.463,25.82A.674.674,0,0,1,6117.32,7691.795Z" transform="translate(-3379.167 -4165.946)" fill="#95c0f4"/>
    <path id="Path_526" data-name="Path 526" d="M6108.689,7621.66a6.876,6.876,0,0,0-3.745,4.613l-1.885-10.676,4.8-.137Z" transform="translate(-3379.167 -4165.946)" fill="#78acea"/>
    <path id="Path_527" data-name="Path 527" d="M4494.208,7565.094h122.9a2.935,2.935,0,0,0,2.927-2.928v-2.529a2.935,2.935,0,0,0-2.927-2.927h-122.9a2.935,2.935,0,0,0-2.927,2.927v2.529A2.935,2.935,0,0,0,4494.208,7565.094Z" transform="translate(-1878.622 -4111.25)" fill="#78acea"/>
    <path id="Path_528" data-name="Path 528" d="M8924.683,7491.95s-3.191,3.954-2.189,4.492,3.627,1.549,4.248.913.817-5.3.817-5.3Z" transform="translate(-6003.842 -4050.96)" fill="#ffb27d"/>
    <path id="Path_529" data-name="Path 529" d="M8915.176,7492.9a4.657,4.657,0,0,0-1.813,1.131c-.513.676-1.646,1.711-1.369,2s1.905-.978,1.905-.978l1.278-2.149Z" transform="translate(-5994.208 -4051.844)" fill="#ffb27d"/>
    <path id="Path_530" data-name="Path 530" d="M8968.087,6726.9s-3.593,33.451-3.913,34.4c-.069.205-.351,1.266-.748,2.788-.565,2.177-1.365,5.3-2.125,8.277-1.142,4.489-2.189,8.636-2.189,8.636l-3.123-1.03s-.161-16.256.641-20,3.372-26.743,4.67-29.838S8968.087,6726.9,8968.087,6726.9Z" transform="translate(-6035.194 -3338.708)" fill="#aec3ff"/>
    <path id="Path_531" data-name="Path 531" d="M8710.552,7578.088l-19.6-5.139a4.812,4.812,0,0,1-3.422-5.854l2.229-8.493a4.807,4.807,0,0,1,5.854-3.42l19.6,5.14a4.808,4.808,0,0,1,3.422,5.854l-2.229,8.49A4.806,4.806,0,0,1,8710.552,7578.088Z" transform="translate(-5785.134 -4109.682)" fill="#a02e2e"/>
    <path id="Path_532" data-name="Path 532" d="M8744.61,7543.048l-7-1.837.482-1.831a.594.594,0,0,1,.724-.423l1.757.46,3.226.847.869.227a.722.722,0,0,1,.166.071.6.6,0,0,1,.259.656Zm-17.74.324-2.254,8.589a4.82,4.82,0,0,0,1.17,4.53,4.673,4.673,0,0,0,1.287.971h0v0a4.767,4.767,0,0,0,.976.372l19.563,5.131a4.826,4.826,0,0,0,5.875-3.434l2.252-8.593a4.825,4.825,0,0,0-3.432-5.876l-6.736-1.766.48-1.832a1.589,1.589,0,0,0-1.135-1.937l-.736-.194-4.1-1.074-1.019-.268a1.6,1.6,0,0,0-1.939,1.133l-.478,1.832-3.9-1.024c-.154-.041-.31-.07-.462-.1h0a4.816,4.816,0,0,0-4.187,1.387v0A4.737,4.737,0,0,0,8726.87,7543.372Z" transform="translate(-5819.656 -4093.778)" fill="#bc3f3f"/>
    <path id="Path_533" data-name="Path 533" d="M8929.963,7537.463s.871-1.465.545-1.977-1.5,1.52-1.5,1.52.8-1.744.5-2.031-1.531,1.716-1.531,1.716.768-1.694.5-1.752-1.18,1.427-1.18,1.427.475-1.269.041-1.208-1.369,1.215-1.369,1.215Z" transform="translate(-6007.26 -4090.98)" fill="#ffb27d"/>
    <path id="Path_534" data-name="Path 534" d="M9013.075,7055.155c-.566,2.178-1.367,5.3-2.125,8.279a32.407,32.407,0,0,1-1.5-6.564c-.723-5.533,1.5-17.328,1.5-17.328Z" transform="translate(-6084.844 -3629.773)" fill="#9db0f4"/>
    <path id="Path_535" data-name="Path 535" d="M9631.923,7471.991s3.479,2.823,3.907,3.7a19.234,19.234,0,0,1,1.452,5.2c-.057,1.054-2.66-2.409-3.43-2.687s.8,1.421.623,1.785-1.809-.826-2.43-1.216-1.054-3.028-1.981-4.467S9631.923,7471.991,9631.923,7471.991Z" transform="translate(-6662.588 -4032.378)" fill="#ffb27d"/>
    <path id="Path_536" data-name="Path 536" d="M8998.981,8568.229h17.32c1.24-.842-.332-9.069-.332-9.069s-4.729-1.8-5.546,1.854-6.021,4.8-8.776,5.25A2.96,2.96,0,0,0,8998.981,8568.229Z" transform="translate(-6075.233 -5044.106)" fill="#233862"/>
    <path id="Path_537" data-name="Path 537" d="M9371.211,8568.229h17.321c1.244-.842-.335-9.069-.335-9.069s-4.726-1.8-5.543,1.854-6.022,4.8-8.773,5.25A2.964,2.964,0,0,0,9371.211,8568.229Z" transform="translate(-6421.773 -5044.106)" fill="#233862"/>
    <path id="Path_538" data-name="Path 538" d="M9066.51,7461.995s.778,9.715,1.693,21.393c1.242,15.862,4.6,55.188,4.6,55.188s2.2,1.877,7.07.851a154.041,154.041,0,0,0,5.386-29.052c.02-.255.038-.509.059-.769,1.154-15.762,2.948-48.956,2.948-48.956Z" transform="translate(-6138.1 -4021.82)" fill="#2b478b"/>
    <path id="Path_539" data-name="Path 539" d="M9062.66,7431.489s1.044,13.072,1.957,24.75l17.056,26.986c.02-.255.038-.509.061-.767,1.153-15.763,2.947-48.957,2.947-48.957Z" transform="translate(-6134.517 -3994.672)" fill="#233862"/>
    <path id="Path_540" data-name="Path 540" d="M9134.67,7351.244s12.371,30.793,16.324,42.466c2.818,8.313,10.76,37.478,10.76,37.478a7.992,7.992,0,0,0,6.361-.979s2.955-29.8-3.018-38.2c-3.17-4.458-.785-46.338-13.627-46.7S9134.67,7351.244,9134.67,7351.244Z" transform="translate(-6201.557 -3914.427)" fill="#2b478b"/>
    <path id="Path_541" data-name="Path 541" d="M9063.646,6772.617c-5.154,2.912-27.253,2.845-28.274.561-2.287-5.1-2.86-31.017-1.782-38.966,0,0,.558-12.217,1.782-11.679,8.159-3.75,21.369-.343,21.369-.343,3.563,1.047,3.26,9.189,4.252,20.62q.192,2.21.428,4.594c.705,7.059,1.73,15.166,3.281,23.721C9064.8,6771.69,9064.414,6772.188,9063.646,6772.617Z" transform="translate(-6106.962 -3333.004)" fill="#aec3ff"/>
    <path id="Path_542" data-name="Path 542" d="M9168.807,6599.827c-.137,2.186-2.988,1.938-6.413,1.156s-2.185-2.8-2.185-2.8.049-1.552.265-3.414c.079-.676.179-1.4.311-2.095.06-.339.125-.68.2-1,.448-1.923,6.845-.069,6.8.45C9167.663,6593.516,9168.672,6598.11,9168.807,6599.827Z" transform="translate(-6225.13 -3212.016)" fill="#ffb27d"/>
    <path id="Path_543" data-name="Path 543" d="M9177.672,6735.911l-.271-3.021,3.792.718-1.459,2.694Z" transform="translate(-6241.339 -3344.285)" fill="#233862"/>
    <path id="Path_544" data-name="Path 544" d="M9133.728,6676.951l-2.267,3.447a5.013,5.013,0,0,0,1.968,3.658l3.1-2.886S9134.523,6680.406,9133.728,6676.951Z" transform="translate(-6198.569 -3292.206)" fill="#9db0f4"/>
    <path id="Path_545" data-name="Path 545" d="M9204.889,6688.562a8.105,8.105,0,0,0,1.881,3.362s4.842-1.3,5.994-3.781l-2.52-3.251S9210.121,6687.352,9204.889,6688.562Z" transform="translate(-6266.929 -3299.598)" fill="#9db0f4"/>
    <path id="Path_546" data-name="Path 546" d="M9174.35,6613.776a11.873,11.873,0,0,1-7.349,1.561c.079-.677.179-1.4.309-2.1.841-.2,1.548-.332,1.548-.332Z" transform="translate(-6231.656 -3232.585)" fill="#e2915a"/>
    <path id="Path_547" data-name="Path 547" d="M9149.385,6431.435c-1.506,4.143-7,3.085-9.34,2.42-.66-.187-1.068-.342-1.068-.342-.723-.329-.947-1.591-.883-3.185.123-3.155,1.371-7.606,2.086-8.68,1.074-1.616,2.869-3.256,8.2-.97S9151.314,6426.125,9149.385,6431.435Z" transform="translate(-6204.734 -3052.571)" fill="#ffb27d"/>
    <path id="Path_548" data-name="Path 548" d="M9162.938,6389.429c-1.684,1.372-5.3,3.91-5.3,3.91a6.562,6.562,0,0,0,.893-1.846,1.749,1.749,0,0,0,.066-.625,3.449,3.449,0,0,1,.5-1.914c.219-.358.3-.728.021-.991-.457-.432-1.238-.035-1.75.315a1.039,1.039,0,0,1-1.127.03s0,0-.008,0c-1.434-.9.152-2.487-1.014-3.806s-6.227-1.5-6.025-2.32c-1.725-.975-.637-4.574-.6-4.765a18.661,18.661,0,0,0,5.568-.552c2.51-.63,5.277.983,6.152,1.646a1.379,1.379,0,0,0-.139-.614,1.317,1.317,0,0,1,.375.813c.037.039.053.066.043.074a1.661,1.661,0,0,1,.791.184s-.213-.068-.314.061a.24.24,0,0,1-.045.032C9164.383,6381.431,9164.332,6388.286,9162.938,6389.429Z" transform="translate(-6214.172 -3012.693)" fill="#233862"/>
    <path id="Path_549" data-name="Path 549" d="M9151.567,6571.112s-.272.523-1.63.091c0,0-1.142-.364-.953-.968A3.859,3.859,0,0,1,9151.567,6571.112Z" transform="translate(-6214.863 -3192.848)" fill="#fff"/>
    <path id="Path_550" data-name="Path 550" d="M9141.058,6776.661s-3.028,38.245-2.983,41.434,3.353,6.554,3.353,6.554a14.013,14.013,0,0,0,3.152-5.936c.515-3.048-1.46-41.661-1.46-41.661Z" transform="translate(-6204.725 -3385.034)" fill="#2a4e96"/>
    <path id="Path_551" data-name="Path 551" d="M9376.209,6741.3s4.885,1.169,8.746,8.589,6.916,22.387,8.76,26.334,3.113,16.391,3.113,16.391l-2.924,1.432s-7.051-12.749-8.092-16.929c-.564-2.262-9.184-20.37-9.184-20.37Z" transform="translate(-6426.426 -3352.114)" fill="#aec3ff"/>
    <path id="Path_552" data-name="Path 552" d="M9385.17,7041.765h0c-9.2-1.323-6.562-31.77-5.843-31.89s3.368,5.442,3.368,5.442l.25,1.235c.705,7.058,1.729,15.166,3.282,23.719C9386.327,7040.836,9385.938,7041.335,9385.17,7041.765Z" transform="translate(-6428.485 -3602.153)" fill="#9db0f4"/>
    <path id="Path_553" data-name="Path 553" d="M10952.194,8413.436s3.83,3.5,3.08,5.98-4.205,4.141-4.67,7.177-2.336,4.69-4.015,4.69h-8.019s-1.238-2.136,1.747-2.78,4.121-4.21,3.937-7.523a58.248,58.248,0,0,1,.273-7.728l6.356-1.47Z" transform="translate(-7880.728 -4907.312)" fill="#233862"/>
    <path id="Path_554" data-name="Path 554" d="M10154.767,8525.221s.688,7.957-1,8.783l-21.518-.042s0-2.485,3.461-3.037,9.525-2.574,10.555-7.081S10154.767,8525.221,10154.767,8525.221Z" transform="translate(-7130.291 -5010.057)" fill="#233862"/>
    <path id="Path_555" data-name="Path 555" d="M10195.2,6912.375s1.138,13.945,2.477,30.707c1.808,22.771,3.985,50.74,4.205,56.039.374,9.2,1.87,23.917,1.87,23.917s3.55,3.5,10.649,2.024a237.66,237.66,0,0,0,8.137-43.239c.027-.365.056-.732.082-1.1,1.687-22.63,4.3-70.281,4.3-70.281Z" transform="translate(-7188.896 -3509.583)" fill="#2a4e96"/>
    <path id="Path_556" data-name="Path 556" d="M10195.2,6912.375s1.138,13.945,2.477,30.707l24.861,38.74c.027-.365.056-.732.084-1.1,1.685-22.63,4.3-70.281,4.3-70.281Z" transform="translate(-7188.896 -3509.583)" fill="#233862"/>
    <path id="Path_557" data-name="Path 557" d="M10270.3,6839.56s20.458,50.5,33.909,74.234,17.661,30.357,17.661,30.357,7.705-3.036,8.41-5.105c0,0-5.146-45.819-14.156-56.988-5.09-6.312-9.479-20.313-9.261-26.94.381-11.426-3.914-24.668-3.914-24.668Z" transform="translate(-7258.814 -3435.111)" fill="#2a4e96"/>
    <path id="Path_558" data-name="Path 558" d="M9973.157,6973.21s-3.818,5.172-4.1,6.551-.609,6.31-.157,7.752,2.84-4.3,3.809-4.967-.605,2.262-.229,2.706,2.217-1.8,2.939-2.561.387-4.594,1.159-6.924S9973.157,6973.21,9973.157,6973.21Z" transform="translate(-6978.006 -3568.02)" fill="#ffb27d"/>
    <path id="Path_559" data-name="Path 559" d="M10037.572,5883.97s-5.163,48.057-5.621,49.426c-.1.3-.506,1.82-1.076,4.008-.812,3.124-1.96,7.617-3.052,11.886-1.641,6.454-3.415,12.034-3.415,12.034a4.521,4.521,0,0,1-2.659.343,2.826,2.826,0,0,1-1.978-1.205s.19-23.595,1.344-28.972,4.838-38.418,6.7-42.865S10037.572,5883.97,10037.572,5883.97Z" transform="translate(-7025.575 -2553.951)" fill="#fff"/>
    <path id="Path_560" data-name="Path 560" d="M10107.665,6355.6c-.813,3.123-1.96,7.617-3.054,11.885a46.663,46.663,0,0,1-2.153-9.424c-1.037-7.955,2.148-24.895,2.148-24.895Z" transform="translate(-7102.361 -2972.152)" fill="#dceaff"/>
    <path id="Path_561" data-name="Path 561" d="M10180.256,5949.666c-7.406,4.178-39.155,4.085-40.628.805-3.28-7.326-4.105-44.561-2.554-55.98,0,0,.8-17.551,2.554-16.779,11.73-5.386,30.707-.493,30.707-.493,5.118,1.5,4.681,13.2,6.108,29.623.18,2.115.386,4.321.617,6.6,1.007,10.141,2.479,21.791,4.707,34.081C10181.92,5948.329,10181.354,5949.046,10180.256,5949.666Z" transform="translate(-7134.078 -2545.77)" fill="#fff"/>
    <path id="Path_562" data-name="Path 562" d="M10331.334,5701.452c-.2,3.138-4.29,2.782-9.218,1.66s-3.135-4.025-3.135-4.025.073-2.23.38-4.9c.113-.971.26-2.006.442-3.008.092-.491.187-.975.3-1.441.646-2.763,9.834-.1,9.767.646C10329.688,5692.385,10331.143,5698.986,10331.334,5701.452Z" transform="translate(-7303.843 -2371.978)" fill="#ffb27d"/>
    <path id="Path_563" data-name="Path 563" d="M10344.087,5896.958l-.388-4.337,5.446,1.027-2.092,3.875Z" transform="translate(-7327.147 -2562.004)" fill="#233862"/>
    <path id="Path_564" data-name="Path 564" d="M10280.913,5812.209l-3.253,4.952a7.2,7.2,0,0,0,2.828,5.256l4.45-4.144S10282.061,5817.175,10280.913,5812.209Z" transform="translate(-7265.666 -2487.143)" fill="#dceaff"/>
    <path id="Path_565" data-name="Path 565" d="M10383.2,5828.907s.925,3.31,2.7,4.829c0,0,6.955-1.87,8.612-5.429l-3.622-4.677S10390.721,5827.167,10383.2,5828.907Z" transform="translate(-7363.922 -2497.776)" fill="#dceaff"/>
    <path id="Path_566" data-name="Path 566" d="M10339.342,5721.481a17.072,17.072,0,0,1-10.561,2.245c.112-.971.258-2.006.441-3.008,1.209-.294,2.223-.478,2.223-.478Z" transform="translate(-7313.259 -2401.522)" fill="#e2915a"/>
    <path id="Path_567" data-name="Path 567" d="M10303.435,5459.5c-2.162,5.953-10.057,4.434-13.416,3.477-.946-.266-1.534-.49-1.534-.49-1.035-.471-1.36-2.284-1.267-4.574.181-4.53,1.967-10.929,2.99-12.47,1.552-2.32,4.128-4.678,11.782-1.394S10306.212,5451.877,10303.435,5459.5Z" transform="translate(-7274.549 -2142.888)" fill="#ffb27d"/>
    <path id="Path_568" data-name="Path 568" d="M10322.954,5399.174c-2.413,1.972-7.6,5.618-7.6,5.618a9.453,9.453,0,0,0,1.281-2.649,2.64,2.64,0,0,0,.091-.9,5,5,0,0,1,.716-2.75c.315-.513.426-1.046.028-1.423-.655-.623-1.774-.051-2.508.452a1.484,1.484,0,0,1-1.618.042c-.006,0-.006,0-.011-.006-2.067-1.294.213-3.572-1.462-5.464s-8.948-2.151-8.651-3.336c-2.479-1.4-.918-6.569-.873-6.843a26.784,26.784,0,0,0,8-.8c3.606-.905,7.581,1.411,8.842,2.366a2.025,2.025,0,0,0-.2-.881,1.861,1.861,0,0,1,.538,1.168c.056.055.076.093.061.1a2.4,2.4,0,0,1,1.136.263s-.308-.1-.452.087a.289.289,0,0,1-.062.048C10325.032,5387.684,10324.958,5397.535,10322.954,5399.174Z" transform="translate(-7288.155 -2085.613)" fill="#bc3f3f"/>
    <path id="Path_569" data-name="Path 569" d="M10306.52,5660.215s-.393.749-2.348.128c0,0-1.635-.521-1.363-1.385A5.546,5.546,0,0,1,10306.52,5660.215Z" transform="translate(-7289.051 -2344.458)" fill="#fff"/>
    <path id="Path_570" data-name="Path 570" d="M10291.432,5955.46s-4.351,54.946-4.288,59.524,4.819,9.418,4.819,9.418,3.787-4.15,4.525-8.528-2.1-59.849-2.1-59.849Z" transform="translate(-7274.494 -2620.508)" fill="#2a4e96"/>
    <path id="Path_571" data-name="Path 571" d="M10642.145,6336.33h-.007c-13.22-1.9-9.43-45.644-8.393-45.816s4.838,7.821,4.838,7.821l.363,1.771c1.008,10.142,2.479,21.793,4.71,34.082C10643.809,6334.994,10643.243,6335.712,10642.145,6336.33Z" transform="translate(-7595.964 -2932.435)" fill="#dceaff"/>
    <path id="Path_572" data-name="Path 572" d="M10792.512,7081.056l-27.945,8.133a6.913,6.913,0,0,1-8.54-4.69l-3.521-12.111a6.909,6.909,0,0,1,4.691-8.538l27.94-8.132a6.906,6.906,0,0,1,8.539,4.688l3.528,12.111A6.91,6.91,0,0,1,10792.512,7081.056Z" transform="translate(-7707.485 -3644.578)" fill="#a02e2e"/>
    <path id="Path_573" data-name="Path 573" d="M10827.559,7026.969l-9.985,2.908-.761-2.615a.852.852,0,0,1,.582-1.054l2.5-.728,4.6-1.342,1.242-.359a.854.854,0,0,1,.255-.032.844.844,0,0,1,.8.611Zm-21.627,13.5,3.562,12.25a6.936,6.936,0,0,0,4.787,4.724,6.843,6.843,0,0,0,2.3.244h.006a6.926,6.926,0,0,0,1.476-.259l27.9-8.119a6.931,6.931,0,0,0,4.7-8.571l-3.56-12.25a6.94,6.94,0,0,0-8.574-4.707l-9.6,2.8-.761-2.615a2.283,2.283,0,0,0-2.829-1.552l-1.053.306-5.846,1.7-1.451.425a2.278,2.278,0,0,0-1.55,2.825l.761,2.615-5.566,1.618a6.65,6.65,0,0,0-.643.222v0h-.007a6.936,6.936,0,0,0-4.137,4.8h0A6.889,6.889,0,0,0,10805.932,7040.466Z" transform="translate(-7757.223 -3613.735)" fill="#bc3f3f"/>
    <path id="Path_574" data-name="Path 574" d="M10998.517,6948.68s-.86,7.244.763,7.141,5.6-.881,5.868-2.13-3.048-7.07-3.048-7.07Z" transform="translate(-7936.562 -3543.265)" fill="#ffb27d"/>
    <path id="Path_575" data-name="Path 575" d="M10981.333,6976.179a6.792,6.792,0,0,0-1.355,2.76c-.106,1.215-.7,3.341-.14,3.477s1.573-2.645,1.573-2.645Z" transform="translate(-7919.164 -3570.784)" fill="#ffb27d"/>
    <path id="Path_576" data-name="Path 576" d="M10629.3,5904.681s7.016,1.681,12.564,12.34,9.934,32.159,12.582,37.835,4.664,22.7,4.664,22.7a2.606,2.606,0,0,1-1.842,1.155,8.741,8.741,0,0,1-2.244.146s-10.432-16.717-11.934-22.721c-.812-3.25-13.193-29.263-13.193-29.263Z" transform="translate(-7593.037 -2573.233)" fill="#fff"/>
    <path id="Path_577" data-name="Path 577" d="M3916.872,8441.856l-1.051-7.575,4.417-3.691,1.392,10.03Z" transform="translate(-1342.876 -4924.821)" fill="#ffb27d"/>
    <path id="Path_578" data-name="Path 578" d="M3899.339,8562.5h-18.011a9.907,9.907,0,0,1,.509-4.828c.9-2,2.305-3.233,2.433-4.764a5.406,5.406,0,0,0,5.156,1.588,19.793,19.793,0,0,0,3.126,4.051C3893.729,8559.393,3898.976,8559.093,3899.339,8562.5Z" transform="translate(-1310.672 -5038.699)" fill="#233862"/>
    <path id="Path_579" data-name="Path 579" d="M3790.017,6978.634c-1.178,9.473-2.141,18.407-2.925,26.73-4.191,44.361-3.369,71.474-3.369,71.474s-.3.8-2.9.813a14.907,14.907,0,0,1-2.907-.313s-9.385-28.965-8.661-45.448a25.3,25.3,0,0,1,.733-5.338c2.251-8.433-8.331-40.684,3.172-52.7S3790.558,6974.285,3790.017,6978.634Z" transform="translate(-1204.97 -3563.881)" fill="#f99746"/>
    <path id="Path_580" data-name="Path 580" d="M3790.017,6978.632c-1.178,9.474-2.141,18.408-2.925,26.731l-17.838,26.525a25.237,25.237,0,0,1,.733-5.338c2.251-8.433-8.331-40.684,3.172-52.7S3790.558,6974.285,3790.017,6978.632Z" transform="translate(-1204.97 -3563.882)" fill="#ed7d2b"/>
    <path id="Path_581" data-name="Path 581" d="M4283.86,5667.147s-.434-2.166-.922-3.818c-.216-.731,1.292-5.532,2.335-6.123s3.761,2.643,2.991,5.125c-.395,1.275-1.044,5.425-1.044,5.425Z" transform="translate(-1684.638 -2342.771)" fill="#ffb27d"/>
    <path id="Path_582" data-name="Path 582" d="M4262.646,5738.44s-.568-1.255-1.08-1.458-1.061-2.257-1.437-3.07c0,0,.363-.531,1,.152.387.417,1.25,1.643,1.25,1.643Z" transform="translate(-1663.424 -2414.066)" fill="#ffb27d"/>
    <path id="Path_583" data-name="Path 583" d="M3133.387,5847.325c-.11.229-.263.637-.4,1.019,0-.1,0-.208,0-.31-.007-.76-2.854-4.91-4.025-5.17s-2.823,3.626-1.361,5.776c.751,1.1,2.586,4.882,2.586,4.882l3.034-1.567s.174-1.366.605-1.712.355-2.466.476-3.356C3134.3,5846.887,3133.794,5846.485,3133.387,5847.325Z" transform="translate(-608.514 -2515.671)" fill="#ffb27d"/>
    <path id="Path_584" data-name="Path 584" d="M3489.1,8426.461c-.254-2.426-.317-8.813-.317-8.813s6.509-2.081,6.269-.651a45.945,45.945,0,0,0-.858,10.5l-2.631,1.57-2.463-2.606Z" transform="translate(-945.307 -4911.698)" fill="#ffb27d"/>
    <path id="Path_585" data-name="Path 585" d="M3505.03,7087.16s-25.144,68.927-30.094,98.823a5,5,0,0,1-3.285.527,3.674,3.674,0,0,1-3.09-1.982s-4.543-35.835,4.485-48.274c6.2-8.548-2.675-46.084,11.772-49.094S3505.03,7087.16,3505.03,7087.16Z" transform="translate(-925.418 -3672.86)" fill="#f99746"/>
    <path id="Path_586" data-name="Path 586" d="M3393.92,5961.15v0a.465.465,0,0,0-.021-.087c-.146-.608-.307-1.206-.48-1.8v0a40.663,40.663,0,0,0-1.827-5.063c-.389-.873-.792-1.683-1.2-2.4-.063-.112-.125-.213-.184-.32l0,0a7.209,7.209,0,0,0-2.871-3.111,8.624,8.624,0,0,0-4.732-.2,2.166,2.166,0,0,1,.9-.6,7.151,7.151,0,0,0-2.447,1.041c-11.581-2.59-10.9,13.792-10.115,17.5s-2.943,5.518-8.2,9.318c-10.035,7.248-9.867,14.934-9.867,14.934.09.038.189.083.292.134.4-.994,1.26-2.878,2.158-3.274a38.591,38.591,0,0,0-.962,3.889c1.528.845,3.644,2.148,5.94,3.621l0,0c3.074,1.965,6.466,4.229,9.184,6.066a6.218,6.218,0,0,1-.067-2.418l.865,2.684.114.35c1.735,1.175,3.1,2.117,3.8,2.6l.191.132c.2.136.312.213.312.213-.231-.948.782-3.42,2.481-6.536.116-.217.241-.438.366-.663.549-.986,1.161-2.023,1.821-3.094.238-.386.478-.772.726-1.167a0,0,0,0,1,0,0c.2-.317.4-.633.61-.953l0,0c.492-.762,1-1.529,1.522-2.295,1.345-1.988,2.771-3.962,4.179-5.772a50.8,50.8,0,0,1,5.732-6.429c.055-.112.107-.227.153-.344a11.3,11.3,0,0,0,.622-1.983c.049-.205.093-.417.131-.624a27.11,27.11,0,0,0,.421-4.91,27.846,27.846,0,0,1-.06,4.949c-.033.268-.068.514-.108.745h0a9.922,9.922,0,0,1-.305,1.3,6.7,6.7,0,0,0,.732-1.125,7.842,7.842,0,0,0,.38-.84c1.356-3.461.991-8.622-.184-13.464Z" transform="translate(-818.775 -2613.153)" fill="#163560"/>
    <path id="Path_587" data-name="Path 587" d="M3771.323,6257.4c.039.01-3.242,2.384-6.025,2.05-2.618-.312-4.747-3.329-4.713-3.341,1.035-.369,1.124-1.88.165-8.168l.5.023,8.337.4s.194,2.577.546,4.978C3770.422,6255.355,3770.83,6257.25,3771.323,6257.4Z" transform="translate(-1198.353 -2892.802)" fill="#ffb27d"/>
    <path id="Path_588" data-name="Path 588" d="M3778.5,6248.661s.2,2.577.547,4.977c-4.55.545-7.561-3.23-8.883-5.377Z" transform="translate(-1207.268 -2893.101)" fill="#ed975d"/>
    <path id="Path_589" data-name="Path 589" d="M3698.221,6001.675a24.109,24.109,0,0,1-3.98-6.524c-.748-2.229-.844-10.893,7.871-10.939a11.706,11.706,0,0,1,5.077,1.1c2.039.979,5.115,3.281,3.228,11.133l-.4,2.621Z" transform="translate(-1136.297 -2647.272)" fill="#163560"/>
    <path id="Path_590" data-name="Path 590" d="M3625.034,6397.38a35.318,35.318,0,0,1-24.469,3.133c-.161-.042-11.216-1.8-11.216-1.8.19-.521,1.618-9.062,1.805-9.538,2.416-6.238,6.834-40.081,10.522-41.751.943,1.027,3.635,1.728,5.94,1.525,2.654-.235,3.543-1.382,3.323-2.615,2.936,1.389,5.193,2.679,5.193,2.679C3618.817,6353.031,3625.034,6397.38,3625.034,6397.38Z" transform="translate(-1038.936 -2984.403)" fill="#fff"/>
    <path id="Path_591" data-name="Path 591" d="M3745.3,6045.016s-10.7,1.771-11.7-4.907-3.055-10.944,3.731-12.36,8.5.937,9.375,3.083S3748.06,6044.383,3745.3,6045.016Z" transform="translate(-1172.223 -2687.408)" fill="#ffb27d"/>
    <path id="Path_592" data-name="Path 592" d="M3703.21,6007s-1.769,8.272-6.1,10.1-6.468.911-6.468.911a12.892,12.892,0,0,0,3.052-8.157S3700.442,6003.6,3703.21,6007Z" transform="translate(-1133.236 -2667.55)" fill="#163560"/>
    <path id="Path_593" data-name="Path 593" d="M3863.61,6010.138a9.589,9.589,0,0,1,3.241,3.044c.787,1.621,1.548,5.088,2.551,4.817,0,0,1.418-5.654-1.514-8.3C3864.776,6006.9,3863.61,6010.138,3863.61,6010.138Z" transform="translate(-1294.269 -2669.943)" fill="#163560"/>
    <path id="Path_594" data-name="Path 594" d="M3932.842,5796.3a6.789,6.789,0,0,0-1.912-.592,5.924,5.924,0,0,0-1.682.175s-3.016,18.758-3.241,19.75-12.943,15.323-16.372,15.266c-3.1-.052-6.765,2.338-7.445,2.8,0,0,7.21,15.249,7.57,18.113.392,3.116,4.125,51.115,4.125,51.115s-.223,2.232,3.951,1.032,5.215-2.193,5.215-2.193-3.832-37.789-4.637-49.538a22.441,22.441,0,0,0-.732-4.387,4.438,4.438,0,0,1,.718-3.772c5.275-7.243,13.6-18.973,14.069-21.467C3933.149,5818.938,3932.842,5796.3,3932.842,5796.3Z" transform="translate(-1330.186 -2471.771)" fill="#2b478b"/>
    <path id="Path_595" data-name="Path 595" d="M3466.529,8562.5h-18.01a9.894,9.894,0,0,1,.509-4.828c.9-2,2.3-3.233,2.432-4.764a5.407,5.407,0,0,0,5.157,1.588,19.74,19.74,0,0,0,3.125,4.051C3460.918,8559.393,3466.167,8559.093,3466.529,8562.5Z" transform="translate(-907.733 -5038.699)" fill="#233862"/>
    <path id="Path_596" data-name="Path 596" d="M3222.322,6012.255c-.606-3.734-8.357-18.734-8.357-18.734s-4.9-1.464-8.124-.3-19.908-8.252-20.442-9.121-9.471-17.515-9.471-17.515a2.068,2.068,0,0,0-1.928.189,2.171,2.171,0,0,0-1.18,1.807s6.9,20.963,8.731,24.207c1.106,1.955,10.408,8.765,17.62,13.863a4.527,4.527,0,0,1,1.875,4.3c-.97,7.169-1.217,11.208-2.332,23.508-.926,10.2-1.279,29.962-1.279,29.962s8.07,2.793,13.64,3.162,6.783-5.5,6.783-5.5S3222.945,6016.1,3222.322,6012.255Z" transform="translate(-651.152 -2630.734)" fill="#2b478b"/>
    <path id="Path_597" data-name="Path 597" d="M3867.01,6222.778a4.776,4.776,0,0,0,2.833.533c1.051-.159,1.289-1.4,1.289-1.4a4.122,4.122,0,0,0-1.9,0A8.061,8.061,0,0,0,3867.01,6222.778Z" transform="translate(-1297.434 -2868.472)" fill="#fff"/>
    <path id="Path_598" data-name="Path 598" d="M8787.076,4236.573s-5-8.893,0-10.7,7.27-.142,7.508,1.885-1.906,10.01-1.906,10.01Z" transform="translate(-5875.882 -1009.562)" fill="#ffb27d"/>
    <path id="Path_599" data-name="Path 599" d="M7908.333,4417.914a161.839,161.839,0,0,1-25.086,2.577,140.006,140.006,0,0,1-19.281-.868q-2.275-.261-4.373-.58c-14.771-2.242-22.932-6.215-22.932-6.215s13.5-28.256,24.406-27.171c12.791,1.274,34.468,12.755,36.625,9.535,2.424-3.627,4.457-34.737,4.457-34.737,5.671-3.884,9.057.21,9.057.21S7922.287,4415.4,7908.333,4417.914Z" transform="translate(-4993.127 -1134.021)" fill="#f99746"/>
    <path id="Path_600" data-name="Path 600" d="M8231.271,5006.148a161.588,161.588,0,0,1-25.086,2.577,139.554,139.554,0,0,1-19.281-.867c-3.4-10.824-5.853-21.881.993-15.214C8199.973,5004.4,8231.271,5006.148,8231.271,5006.148Z" transform="translate(-5316.065 -1722.257)" fill="#ed7d2b"/>
    <path id="Path_601" data-name="Path 601" d="M7819.18,8462.767s-.97,11.234,1.4,12.4l30.389-.059s0-3.508-4.882-4.29-13.455-3.635-14.906-10S7819.18,8462.767,7819.18,8462.767Z" transform="translate(-4976.67 -4950.73)" fill="#233862"/>
    <path id="Path_602" data-name="Path 602" d="M7623.916,6076.778c-.152,7.343-.5,14.919-1.2,21.729-3.282,32.311-4.434,71.35-4.905,78.876-.819,13.063-3.4,33.936-3.4,33.936s-5.12,4.86-15.1,2.542c0,0-8.266-30.062-10.115-61.717l-.082-1.564c-.213-4.187-.437-8.97-.668-14.13-1.52-34.564-3.17-85.906-3.17-85.906l38.131-8.954S7624.29,6058.465,7623.916,6076.778Z" transform="translate(-4759.096 -2700.693)" fill="#2a4e96"/>
    <path id="Path_603" data-name="Path 603" d="M7623.916,6076.778c-9.667,16.672-28.085,47.39-35.465,59.672-1.52-34.564-3.17-85.906-3.17-85.906l38.131-8.954S7624.29,6058.465,7623.916,6076.778Z" transform="translate(-4759.096 -2700.693)" fill="#233862"/>
    <path id="Path_604" data-name="Path 604" d="M6639,6083.451s-6.2,7.3-6.763,9.321-1.552,9.312-1.018,11.5,4.657-6.109,6.157-6.995-1.125,3.3-.613,4,3.475-2.443,4.63-3.508,1.042-6.785,2.429-10.169S6639,6083.451,6639,6083.451Z" transform="translate(-3870.734 -2739.665)" fill="#ffb27d"/>
    <path id="Path_605" data-name="Path 605" d="M6664.4,8304.9s-5.41,4.935-4.353,8.442,5.936,5.844,6.6,10.13,3.3,6.627,5.67,6.627h11.322s1.746-3.018-2.477-3.927-5.812-5.947-5.547-10.621a82.407,82.407,0,0,0-.4-10.912l-8.97-2.077Z" transform="translate(-3897.585 -4805.626)" fill="#233862"/>
    <path id="Path_606" data-name="Path 606" d="M6816.467,6026.1s-35.7,76.375-54.693,109.888-24.931,42.861-24.931,42.861-10.884-4.284-11.873-7.209c0,0,7.265-64.7,19.986-80.466,7.187-8.91,15.632-35.654,16.024-45.006s8.735-31.675,8.735-31.675Z" transform="translate(-3958.157 -2675.464)" fill="#2a4e96"/>
    <path id="Path_607" data-name="Path 607" d="M7342.377,4740.338a61.851,61.851,0,0,1-34.285,8.608c-8.817-.383-26.305-2.883-29.129-9.9-.663-1.648-.177-3.738.816-6.943,2.583-8.335,8.6-24.207,6.78-59.4a57.493,57.493,0,0,1,.235-9.235c1.892-17.333,11.825-27.6,21.427-30.954,23.416-8.184,31.222,3.154,31.222,3.154s10.351,8.2,11.911,25.315C7354.474,4695.22,7342.377,4740.338,7342.377,4740.338Z" transform="translate(-4473.635 -1386.104)" fill="#f99746"/>
    <path id="Path_608" data-name="Path 608" d="M7806.47,4351.416s10.745,6.534,22.4,4.686c0,0,2.306-.586,1.174-3.292a35.285,35.285,0,0,0,1.033-3.607,54.311,54.311,0,0,0,1.334-5.888l-6.613-6.952-6.265-6.643C7817.8,4345.6,7806.47,4351.416,7806.47,4351.416Z" transform="translate(-4965.02 -1106.966)" fill="#ffb27d"/>
    <path id="Path_609" data-name="Path 609" d="M7981.2,4416.98s3.6,9.62,12.546,13.459c1.021-3.732,1.686-7.638,1.686-7.638l-6.964-5.2Z" transform="translate(-5127.692 -1188.203)" fill="#ed985f"/>
    <path id="Path_610" data-name="Path 610" d="M7972.534,4069.5s-20.508,2.563-21.949-10.04-5.057-20.761,7.978-22.93,16.131,2.36,17.651,6.452S7977.832,4068.505,7972.534,4069.5Z" transform="translate(-5097.726 -833.483)" fill="#ffb27d"/>
    <path id="Path_611" data-name="Path 611" d="M7857.125,3929.211c-.178-.219-.6-.407-1.544-.495a3.863,3.863,0,0,1,1.793-.433c.246-1.314,1.038-3.625,3.333-4.106a2.846,2.846,0,0,0-1.457,2c2.733-2.6,8.45-4.359,24.024-2.536,20.526,2.4,13.244,15.329,10.517,16.8s-9.269-3.092-14.248-2.885-6.2,7.347-7.92,8.267-.993-.795-3.233-1.912-2.6,2.653-2.034,5.133-2.689,5.6-2.689,5.6l-3.036-3.528c-3.037-3.528-5.473-18.077-3.918-21.1C7856.849,3929.753,7856.985,3929.483,7857.125,3929.211Z" transform="translate(-5010.742 -728.216)" fill="#2c3a64"/>
    <path id="Path_612" data-name="Path 612" d="M8312.667,4203.147l-34.818.311-.237-5.238,34.708-2.689Z" transform="translate(-5403.646 -982.036)" fill="#2a4e96"/>
    <path id="Path_613" data-name="Path 613" d="M8649.182,4157.985l-37.908.549-.433-9.524,37.8-2.929Z" transform="translate(-5713.879 -935.999)" fill="#2a4e96"/>
    <path id="Path_614" data-name="Path 614" d="M9097.67,4117.434l-31.969.04-.582-12.856,31.834-2.9Z" transform="translate(-6136.806 -894.701)" fill="#233862"/>
    <path id="Path_615" data-name="Path 615" d="M9508.056,4089.861h0a1.786,1.786,0,0,0,1.7-1.866l-.751-16.515a1.787,1.787,0,0,0-1.865-1.706h0a1.788,1.788,0,0,0-1.707,1.867l.75,16.515A1.791,1.791,0,0,0,9508.056,4089.861Z" transform="translate(-6546.731 -864.958)" fill="#233862"/>
    <path id="Path_616" data-name="Path 616" d="M8254.44,4225.946h0a1.589,1.589,0,0,1-1.658-1.515l-.2-4.286a1.589,1.589,0,0,1,1.516-1.659h0a1.586,1.586,0,0,1,1.658,1.515l.194,4.285A1.587,1.587,0,0,1,8254.44,4225.946Z" transform="translate(-5380.346 -1003.407)" fill="#2a4e96"/>
    <path id="Path_617" data-name="Path 617" d="M7294.9,5189.208c2.582-8.334,8.595-24.207,6.779-59.4a57.776,57.776,0,0,1,.236-9.236h0c7.7-.663,19.486,7.67,19.486,7.67S7314.148,5172.473,7294.9,5189.208Z" transform="translate(-4488.755 -1843.205)" fill="#ed7d2b"/>
    <path id="Path_618" data-name="Path 618" d="M6785.643,4644.069s-19.761,3.4-30.067,15.979-26.885,30.322-30.8,36.534-14.8,48.491-14.8,48.491.72,1.358,3.721,2.15a7.072,7.072,0,0,0,4.956-.416s14.416-24.673,19.843-37c2.253-5.121,41.242-25.4,55.9-23.3C6800.145,4687.333,6785.643,4644.069,6785.643,4644.069Z" transform="translate(-3944.193 -1399.62)" fill="#f99746"/>
    <path id="Path_619" data-name="Path 619" d="M8782.551,4154.949s4.25,2.6,6.794,1.5,2.316-2.107,2.316-2.107S8783.98,4152.21,8782.551,4154.949Z" transform="translate(-5873.738 -942.954)" fill="#ffb27d"/>
    <path id="Path_620" data-name="Path 620" d="M7046.9,4830.728s-8.671,54.75-70.2,70.69l-6.7,13.223,11.773,1.994s70.048-20.293,69.1-86.875Z" transform="translate(-4186.279 -1572.496)" fill="#bc3f3f"/>
    <path id="Path_621" data-name="Path 621" d="M8026.529,4717.16l-2.839.278v4.111l4.183,4.35,3.979-.969v-5.706l-2.861-2.065Z" transform="translate(-5167.25 -1467.667)" fill="#a02e2e"/>
    <path id="Path_622" data-name="Path 622" d="M7781.458,4559.4s-2.751.62-9.038,5.843c0,0,6.253,13.267,19.438,14.855,0,0-.21-6.157.743-9.812C7792.6,4570.287,7782.149,4566.546,7781.458,4559.4Z" transform="translate(-4933.32 -1320.794)" fill="#ed7d2b"/>
    <path id="Path_623" data-name="Path 623" d="M8064.832,4667.94s6.434,3.416,6.911,8.739c0,0,2.458-3.9,1.746-6.6a22.037,22.037,0,0,0-2.918-5.791S8070.79,4667.542,8064.832,4667.94Z" transform="translate(-5205.552 -1418.446)" fill="#ed7d2b"/>
  </g>
</svg>
