<svg id="linkedin" xmlns="http://www.w3.org/2000/svg" width="30" height="30" viewBox="0 0 30 30">
  <path id="Path_1496" data-name="Path 1496" d="M29.25,8H16.75A8.76,8.76,0,0,0,8,16.75v12.5A8.76,8.76,0,0,0,16.75,38h12.5A8.76,8.76,0,0,0,38,29.25V16.75A8.76,8.76,0,0,0,29.25,8ZM35.5,29.25a6.257,6.257,0,0,1-6.25,6.25H16.75a6.257,6.257,0,0,1-6.25-6.25V16.75a6.257,6.257,0,0,1,6.25-6.25h12.5a6.257,6.257,0,0,1,6.25,6.25Z" transform="translate(-8 -8)" fill="#46186c"/>
  <path id="Path_1497" data-name="Path 1497" d="M23.407,27A1.407,1.407,0,0,0,22,28.407v10.55a1.407,1.407,0,0,0,2.813,0V28.407A1.407,1.407,0,0,0,23.407,27Z" transform="translate(-13.35 -16.1)" fill="#46186c"/>
  <path id="Path_1498" data-name="Path 1498" d="M35.627,28.407H34.22a4.2,4.2,0,0,0-1.407.246v-.246a1.407,1.407,0,0,0-2.813,0v10.55a1.407,1.407,0,0,0,2.813,0v-6.33A1.408,1.408,0,0,1,34.22,31.22h1.407a1.408,1.408,0,0,1,1.407,1.407v6.33a1.407,1.407,0,0,0,2.813,0v-6.33A4.224,4.224,0,0,0,35.627,28.407Z" transform="translate(-16.96 -16.1)" fill="#46186c"/>
  <path id="Path_1499" data-name="Path 1499" d="M23.11,18a2.11,2.11,0,1,0,2.11,2.11A2.113,2.113,0,0,0,23.11,18Z" transform="translate(-13.021 -11.862)" fill="#46186c"/>
</svg>
