<svg xmlns="http://www.w3.org/2000/svg" id="map-point-pointer" width="20.625" height="29.015" viewBox="0 0 20.625 29.015"><g id="Group_63" data-name="Group 63" transform="translate(0)"><path id="Path_117" fill="#501e78" d="M170.17,114.467a4.561,4.561,0,1,0,4.561,4.561A4.561,4.561,0,0,0,170.17,114.467Zm0,7.079a2.519,2.519,0,1,1,2.519-2.519A2.524,2.524,0,0,1,170.17,121.546Z" data-name="Path 117" transform="translate(-159.857 -107.592)"/><path id="Path_118" fill="#501e78" d="M87.727,3.4A10.217,10.217,0,0,0,79.848,0C73.279,0,69.842,5.343,69.842,10.619c0,6.909,9.445,17.579,9.853,18.038a.988.988,0,0,0,.749.357h.017a1.061,1.061,0,0,0,.749-.34A50.776,50.776,0,0,0,85.8,22.769c3.1-4.629,4.663-8.73,4.663-12.167A10.989,10.989,0,0,0,87.727,3.4Zm-7.249,22.99C78.266,23.739,71.9,15.69,71.9,10.6c0-4.118,2.5-8.56,7.964-8.56a8.379,8.379,0,0,1,8.56,8.56C88.425,16.592,82.588,23.926,80.478,26.394Z" data-name="Path 118" transform="translate(-69.842)"/></g></svg>