<svg xmlns="http://www.w3.org/2000/svg" width="20.625" height="20.625" viewBox="0 0 20.625 20.625">
  <path id="message_open_2" d="M42.313,514.578l7.734,5.156v10.313H34.578V519.734l7.734-5.156m0-2.578a2.578,2.578,0,0,0-1.43.433l-7.734,5.156A2.578,2.578,0,0,0,32,519.734v10.313a2.578,2.578,0,0,0,2.578,2.578H50.047a2.578,2.578,0,0,0,2.578-2.578V519.734a2.578,2.578,0,0,0-1.148-2.145l-7.735-5.156a2.578,2.578,0,0,0-1.43-.433Zm0,15.469a1.289,1.289,0,0,1-.773-.258l-5.156-3.867a1.289,1.289,0,0,1,1.547-2.062l4.383,3.287,4.383-3.287a1.289,1.289,0,0,1,1.547,2.063l-5.156,3.867A1.289,1.289,0,0,1,42.313,527.469Z" transform="translate(-32 -512)" fill="#501e78" fill-rule="evenodd"/>
</svg>
