<svg xmlns="http://www.w3.org/2000/svg" id="photography-frame" width="20.625" height="17.355" viewBox="0 0 20.625 17.355"><g id="Group_37" data-name="Group 37"><path id="Path_64" fill="#501e78" d="M20.625,37.588a.757.757,0,0,0-.755-.755H.755A.757.757,0,0,0,0,37.588V53.434a.757.757,0,0,0,.755.755H19.87a.757.757,0,0,0,.755-.755Zm-1.509.755V48l-4.427-3.106a.741.741,0,0,0-.943.075l-2.3,2.213L6.665,42.568a.75.75,0,0,0-1.119.075L1.522,47.812v-9.47ZM1.509,52.679V50.264l4.7-6.024,4.7,4.54a.76.76,0,0,0,1.044,0l2.364-2.289,4.792,3.358v2.83Z" data-name="Path 64" transform="translate(0 -36.833)"/><path id="Path_65" fill="#501e78" d="M242.575,137.218a1.459,1.459,0,1,0-1.459-1.459A1.46,1.46,0,0,0,242.575,137.218Z" data-name="Path 65" transform="translate(-230.414 -129.974)"/></g></svg>