<svg xmlns="http://www.w3.org/2000/svg" width="586.433" height="351.8" viewBox="0 0 586.433 351.8">
  <g id="search_leads_illustration" data-name="search leads illustration" transform="translate(-1387.387 -488.789)">
    <path id="Path_1500" data-name="Path 1500" d="M1420.486,840.406s-50.684-83.451-26.614-181.917c16.289-66.641,105.893-113.977,162.142-92.995,30.115,11.234,66.186,19.049,112.771-32.93,77.757-86.761,315.613-45.551,270.956,132.549-21.614,86.188,65.779,89.321,21.246,175.475l-540.5-.183Z" transform="translate(0 0)" fill="#ebf3fa"/>
    <path id="Path_1501" data-name="Path 1501" d="M11943.246,4891.8l-2.467.4-4.678-29.116,2.467-.4Z" transform="translate(-10051.227 -4167.615)" fill="#b5453c"/>
    <path id="Path_1502" data-name="Path 1502" d="M11936.517,4758.21l-.415,5.325,2.467-.4Z" transform="translate(-10051.227 -4068.071)" fill="#efcbab"/>
    <path id="Path_1503" data-name="Path 1503" d="M12392.063,4944.28l-2.461-.457,5.387-28.993,2.46.457Z" transform="translate(-10483.339 -4217.305)" fill="#b5453c"/>
    <path id="Path_1504" data-name="Path 1504" d="M12505.981,4811.43l-2.18,4.876,2.46.457Z" transform="translate(-10592.153 -4118.781)" fill="#efcbab"/>
    <path id="Path_1505" data-name="Path 1505" d="M12325.959,4763.96l-2.457-.457,5.387-28.994,2.459.457Z" transform="translate(-10420.356 -4045.489)" fill="#b5453c"/>
    <path id="Path_1506" data-name="Path 1506" d="M12439.879,4631.11l-2.178,4.876,2.461.457Z" transform="translate(-10529.17 -3946.966)" fill="#efcbab"/>
    <path id="Path_1507" data-name="Path 1507" d="M12132.5,5151.743h19.714v-28.4H12132.5Z" transform="translate(-10238.363 -4415.981)" fill="#ed7d2b"/>
    <path id="Path_1508" data-name="Path 1508" d="M11923.5,5151.743h19.714v-28.4H11923.5Z" transform="translate(-10039.221 -4415.981)" fill="#f99746"/>
    <path id="Path_1509" data-name="Path 1509" d="M11822.74,5415.262c-.186.448-.529,2.8-1.254,4.778v0a4.853,4.853,0,0,1-1.775,2.64c-2.038,1.089-5.643-.385-5.643-.385s-5.979,1.027-6.582.783-1.687-9.249-1.687-9.249,4.417-5.125,4.825-5.286,3.939,1.455,4.525,1.422,3.887-2.461,4.841-1.951S11823.033,5414.549,11822.74,5415.262Z" transform="translate(-9927.069 -4687.165)" fill="#fff"/>
    <path id="Path_1510" data-name="Path 1510" d="M11912.687,5421.829a16.957,16.957,0,0,1-1.2,2.645c-.279.224-3.327-4.067-3.327-4.067C11908.57,5420.244,11912.1,5421.861,11912.687,5421.829Z" transform="translate(-10024.604 -4699.026)" fill="#f2f7fe"/>
    <path id="Path_1511" data-name="Path 1511" d="M12027.457,5459.331s-4.061,4.2-3.984,4.564,4.8,2.758,4.955,2.654-1.146-3.049-1.119-3.562S12027.457,5459.331,12027.457,5459.331Z" transform="translate(-10134.476 -4736.126)" fill="#f2f7fe"/>
    <path id="Path_1512" data-name="Path 1512" d="M12109.449,5416.686c-.186.447-.528,2.8-1.254,4.777v0l.266-4.446-1.761-7.58C12107.652,5409.953,12109.742,5415.972,12109.449,5416.686Z" transform="translate(-10213.78 -4688.588)" fill="#f2f7fe"/>
    <path id="Path_1513" data-name="Path 1513" d="M11814.148,5541.2s-5.977,1.027-6.582.783-1.686-9.25-1.686-9.25,1.566,4.563,1.607,4.79,1.867-.378,1.867-.378Z" transform="translate(-9927.146 -4806.064)" fill="#f2f7fe"/>
    <path id="Path_1514" data-name="Path 1514" d="M11839.1,5530.9l.807,2.357,1.372-.076-1.074-.948Z" transform="translate(-9958.8 -4804.321)" fill="#f2f7fe"/>
    <path id="Path_1515" data-name="Path 1515" d="M11032.2,5724.452v2.564c0,.9.293,1.63.646,1.63h93.594c.352,0,.645-.733.645-1.63v-2.564c0-.9-.293-1.632-.645-1.632h-93.594C11032.494,5722.82,11032.2,5723.556,11032.2,5724.452Z" transform="translate(-9189.955 -4987.189)" fill="#8fadef"/>
    <path id="Path_1516" data-name="Path 1516" d="M11032.2,5724.452v2.564c0,.9.264,1.63.6,1.63h74.3c.32,0,.59-.733.59-1.63v-2.564c0-.9-.27-1.632-.59-1.632h-74.3C11032.465,5722.82,11032.2,5723.556,11032.2,5724.452Z" transform="translate(-9189.955 -4987.189)" fill="#bbd0ff"/>
    <path id="Path_1517" data-name="Path 1517" d="M11534.4,5943.265h66.445V5846.42H11534.4Z" transform="translate(-9668.469 -5104.96)" fill="#aec3ff"/>
    <path id="Path_1518" data-name="Path 1518" d="M11139.6,5943.265h66.444V5846.42H11139.6Z" transform="translate(-9292.289 -5104.96)" fill="#d2e0ff"/>
    <path id="Path_1519" data-name="Path 1519" d="M11273.9,5905.06h-58.027v87.482h58.027V5905.06Zm-58.667-.64h59.3v88.763h-59.3Z" transform="translate(-9364.353 -5160.225)" fill="#aec3ff"/>
    <path id="Path_1520" data-name="Path 1520" d="M11222.1,6527.681h58.664v-.64H11222.1Z" transform="translate(-9370.898 -5753.482)" fill="#aec3ff"/>
    <path id="Path_1521" data-name="Path 1521" d="M11222.1,7162.449h58.664v-.639H11222.1Z" transform="translate(-9370.898 -6358.315)" fill="#aec3ff"/>
    <path id="Path_1522" data-name="Path 1522" d="M11697.172,5986.972h10.89a.962.962,0,0,0,.955-.961h0a.962.962,0,0,0-.955-.96h-10.89a.963.963,0,0,0-.961.96h0A.963.963,0,0,0,11697.172,5986.972Z" transform="translate(-9822.648 -5237.052)" fill="#aec3ff"/>
    <path id="Path_1523" data-name="Path 1523" d="M11697.172,6607.691h10.89a.962.962,0,0,0,.955-.961h0a.961.961,0,0,0-.955-.96h-10.89a.963.963,0,0,0-.961.96h0A.963.963,0,0,0,11697.172,6607.691Z" transform="translate(-9822.648 -5828.499)" fill="#aec3ff"/>
    <path id="Path_1524" data-name="Path 1524" d="M11697.172,7254.762h10.89a.962.962,0,0,0,.955-.961h0a.962.962,0,0,0-.955-.96h-10.89a.963.963,0,0,0-.961.96h0A.963.963,0,0,0,11697.172,7254.762Z" transform="translate(-9822.648 -6445.053)" fill="#aec3ff"/>
    <path id="Path_1525" data-name="Path 1525" d="M9900.951,1102.75h-39a3.264,3.264,0,0,1-3.253-3.255v-37.64a3.263,3.263,0,0,1,3.253-3.255h39a3.263,3.263,0,0,1,3.256,3.255v37.64A3.264,3.264,0,0,1,9900.951,1102.75Z" transform="translate(-8071.797 -542.939)" fill="#c0d8fb"/>
    <path id="Path_1526" data-name="Path 1526" d="M9939.122,1139.474H9903.5a2.981,2.981,0,0,1-2.971-2.973v-34.378a2.981,2.981,0,0,1,2.971-2.973h35.619a2.982,2.982,0,0,1,2.973,2.973V1136.5A2.981,2.981,0,0,1,9939.122,1139.474Z" transform="translate(-8111.656 -581.576)" fill="#dfebfd"/>
    <path id="Path_1527" data-name="Path 1527" d="M10321.1,1165.543a.942.942,0,1,1,.942.943A.943.943,0,0,1,10321.1,1165.543Z" transform="translate(-8512.391 -643.94)" fill="#b7d3f3"/>
    <path id="Path_1528" data-name="Path 1528" d="M10480.079,1203.048a.943.943,0,1,1,.367,1.282A.942.942,0,0,1,10480.079,1203.048Z" transform="translate(-8663.757 -680.112)" fill="#b7d3f3"/>
    <path id="Path_1529" data-name="Path 1529" d="M10611.989,1319.58a.942.942,0,1,1-.283,1.3A.941.941,0,0,1,10611.989,1319.58Z" transform="translate(-8789.149 -791.467)" fill="#b7d3f3"/>
    <path id="Path_1530" data-name="Path 1530" d="M10670.043,1492.54a.943.943,0,1,1-.942.942A.943.943,0,0,1,10670.043,1492.54Z" transform="translate(-8843.979 -956.414)" fill="#b7d3f3"/>
    <path id="Path_1531" data-name="Path 1531" d="M10621.606,1684.149a.943.943,0,1,1-1.333,0A.943.943,0,0,1,10621.606,1684.149Z" transform="translate(-8797.192 -1138.723)" fill="#b7d3f3"/>
    <path id="Path_1532" data-name="Path 1532" d="M10496.128,1810.006a.941.941,0,1,1-1.327,0A.938.938,0,0,1,10496.128,1810.006Z" transform="translate(-8677.632 -1258.645)" fill="#b7d3f3"/>
    <path id="Path_1533" data-name="Path 1533" d="M10321.1,1861.393a.942.942,0,1,1,.942.942A.944.944,0,0,1,10321.1,1861.393Z" transform="translate(-8512.391 -1306.972)" fill="#b7d3f3"/>
    <path id="Path_1534" data-name="Path 1534" d="M10163.537,1203.048a.943.943,0,1,0-.365,1.282A.941.941,0,0,0,10163.537,1203.048Z" transform="translate(-8360.575 -680.112)" fill="#b7d3f3"/>
    <path id="Path_1535" data-name="Path 1535" d="M10031.637,1319.58a.942.942,0,1,0,.282,1.3A.943.943,0,0,0,10031.637,1319.58Z" transform="translate(-8235.194 -791.467)" fill="#b7d3f3"/>
    <path id="Path_1536" data-name="Path 1536" d="M9973.563,1492.54a.943.943,0,1,0,.94.942A.943.943,0,0,0,9973.563,1492.54Z" transform="translate(-8180.344 -956.414)" fill="#b7d3f3"/>
    <path id="Path_1537" data-name="Path 1537" d="M10021.928,1684.149a.942.942,0,1,0,1.332,0A.945.945,0,0,0,10021.928,1684.149Z" transform="translate(-8227.064 -1138.723)" fill="#b7d3f3"/>
    <path id="Path_1538" data-name="Path 1538" d="M10147.527,1810.006a.943.943,0,1,0,1.334,0A.945.945,0,0,0,10147.527,1810.006Z" transform="translate(-8346.74 -1258.645)" fill="#b7d3f3"/>
    <path id="Path_1539" data-name="Path 1539" d="M10335.8,1493.482a.94.94,0,1,1,.943.943A.943.943,0,0,1,10335.8,1493.482Z" transform="translate(-8526.397 -956.414)" fill="#b7d3f3"/>
    <path id="Path_1540" data-name="Path 1540" d="M10353,1274.6h.259V1262.82H10353Z" transform="translate(-8542.785 -737.528)" fill="#b7d3f3"/>
    <path id="Path_1541" data-name="Path 1541" d="M10348.678,1407.328l-.477-.607,6.244-4.9.473.607Z" transform="translate(-8538.213 -869.972)" fill="#b7d3f3"/>
    <path id="Path_1542" data-name="Path 1542" d="M2014.938,6008.435s10.448-12.189.644-19.933c0,0-7.162-4.335-13-3.983,0,0,8.274,13.875,5.6,15.255s-8.106-16.125-8.106-16.125-16.3-1.579-21.54.941c0,0,13.932,11.4,11,12.079s-17.983-10.51-17.983-10.51-15.168,2.58-14.359,11.833,6.035,12.109,8.333,11.863,15.734-5.375,16.027-3.493-7.8,8.034-13.46,8.323c0,0,10.694,11.792,17.8,8.389s7.714-8.8,12.145-10.823,8.212-2.017,6.383.047-9.847,4.069-12.38,8.55-4.807,7.505,2.546,6.4,19.306-6.485,19.83-12.646Z" transform="translate(-542.9 -5235.251)" fill="#aec3ff"/>
    <path id="Path_1543" data-name="Path 1543" d="M2115.85,6301.484s41.2-1.588,50.3,10.194a29.785,29.785,0,0,0,8.2,11.513l.965,2.632s-7.139-7.528-9.693-7.982C2165.621,6317.841,2169.616,6303.244,2115.85,6301.484Z" transform="translate(-694.108 -5538.495)" fill="#aec3ff"/>
    <path id="Path_1544" data-name="Path 1544" d="M3309.273,6742.263a25.878,25.878,0,0,1,9.457,18.227l-1.605.143s-2.824-12.083-7.929-16.806S3309.273,6742.263,3309.273,6742.263Z" transform="translate(-1829.031 -5957.566)" fill="#aec3ff"/>
    <path id="Path_1545" data-name="Path 1545" d="M3736.167,5324.422s-16.622-9.308-8.865-21.938c0,0,6.205-7.758,12.854-9.753,0,0-3.545,18.838,0,19.28s2.438-21.275,2.438-21.275,17.508-8.421,24.377-7.754c0,0-10.859,18.394-7.312,17.949s15.734-19.058,15.734-19.058,17.95-3.323,20.832,7.313-1.772,15.958-4.433,16.622-19.723.444-19.28,2.659,11.967,5.763,18.394,3.768c0,0-7.091,17.507-16.4,16.621s-12.189-6.649-17.951-7.09-9.973,1.108-7.092,2.658,12.632.509,17.286,4.464,8.421,6.394-.222,8.167-24.156.666-27.258-5.982Z" transform="translate(-2227.597 -4566.568)" fill="#d4e4f8"/>
    <path id="Path_1546" data-name="Path 1546" d="M3919.25,5517.331s-46.539,15.071-51.857,31.915a35.354,35.354,0,0,1-4.433,16.177v3.325s4.875-11.3,7.535-12.854C3870.495,5555.894,3860.079,5541.268,3919.25,5517.331Z" transform="translate(-2358.822 -4791.391)" fill="#d4e4f8"/>
    <path id="Path_1547" data-name="Path 1547" d="M3775.144,6495.252s-7.177,10.9-3.086,24.165l1.846-.5s-1.792-14.611,1.962-21.961S3775.144,6495.252,3775.144,6495.252Z" transform="translate(-2271.007 -5721.221)" fill="#d4e4f8"/>
    <path id="Path_1548" data-name="Path 1548" d="M1772.548,4775.528s21.909-12.271,11.685-28.921c0,0-8.18-10.224-16.944-12.854,0,0,4.674,24.831,0,25.415s-3.214-28.044-3.214-28.044-23.077-11.1-32.133-10.225c0,0,14.314,24.246,9.64,23.664s-20.741-25.125-20.741-25.125-23.663-4.381-27.461,9.642,2.337,21.033,5.843,21.909,26,.583,25.415,3.507-15.775,7.594-24.246,4.965c0,0,9.348,23.077,21.618,21.909s16.067-8.763,23.662-9.347,13.146,1.459,9.348,3.506-16.651.669-22.786,5.886-11.1,8.426.292,10.765,31.842.876,35.932-7.889Z" transform="translate(-290.42 -4030.511)" fill="#d2e0ff"/>
    <path id="Path_1549" data-name="Path 1549" d="M1946.78,5029.84s61.347,19.866,68.359,42.068a46.6,46.6,0,0,0,5.842,21.325v4.382s-6.426-14.9-9.932-16.944C2011.048,5080.671,2024.778,5061.391,1946.78,5029.84Z" transform="translate(-533.011 -4326.891)" fill="#d2e0ff"/>
    <path id="Path_1550" data-name="Path 1550" d="M3460.908,6318.922s9.461,14.367,4.068,31.855l-2.435-.652s2.363-19.262-2.587-28.951S3460.908,6318.922,3460.908,6318.922Z" transform="translate(-1972.939 -5552.58)" fill="#d2e0ff"/>
    <path id="Path_1551" data-name="Path 1551" d="M2544.8,6986.518a42.918,42.918,0,0,1-42.917-42.918h85.834A42.918,42.918,0,0,1,2544.8,6986.518Z" transform="translate(-1061.932 -6150.396)" fill="#aec3ff"/>
    <path id="Path_1552" data-name="Path 1552" d="M2489.31,7792.963h87.021a5.294,5.294,0,0,0-5.3-5.293h-76.43a5.294,5.294,0,0,0-5.295,5.293Z" transform="translate(-1049.955 -6954.659)" fill="#aec3ff"/>
    <path id="Path_1553" data-name="Path 1553" d="M2481.18,6944.916H2569.4V6943.6H2481.18Z" transform="translate(-1042.208 -6150.396)" fill="#d2e0ff"/>
    <path id="Path_1554" data-name="Path 1554" d="M4997.35,7637.377c-.155.376-.431,2.371-1.035,4.042v0a4.108,4.108,0,0,1-1.488,2.239c-1.715.929-4.768-.3-4.768-.3s-5.051.9-5.56.694-1.47-7.807-1.47-7.807,3.7-4.353,4.05-4.491,3.335,1.21,3.829,1.18,3.275-2.1,4.082-1.672S4997.6,7636.773,4997.35,7637.377Z" transform="translate(-3426.069 -6805.576)" fill="#fff"/>
    <path id="Path_1555" data-name="Path 1555" d="M5072.739,7643.84a14.44,14.44,0,0,1-1,2.241c-.237.19-2.833-3.422-2.833-3.422C5069.255,7642.521,5072.245,7643.869,5072.739,7643.84Z" transform="translate(-3507.898 -6816.478)" fill="#f2f7fe"/>
    <path id="Path_1556" data-name="Path 1556" d="M5170.4,7674.59s-3.409,3.568-3.343,3.878a19.746,19.746,0,0,0,4.2,2.218c.136-.087-.985-2.573-.965-3S5170.4,7674.59,5170.4,7674.59Z" transform="translate(-3601.42 -6846.911)" fill="#f2f7fe"/>
    <path id="Path_1557" data-name="Path 1557" d="M5239,7638.551c-.154.375-.431,2.37-1.035,4.042v0h0l.2-3.758-1.526-6.4C5237.447,7632.87,5239.246,7637.946,5239,7638.551Z" transform="translate(-3667.718 -6806.75)" fill="#f2f7fe"/>
    <path id="Path_1558" data-name="Path 1558" d="M4990.06,7745.2s-5.051.9-5.56.694-1.47-7.807-1.47-7.807,1.345,3.846,1.381,4.042,1.576-.332,1.576-.332Z" transform="translate(-3426.069 -6907.417)" fill="#f2f7fe"/>
    <path id="Path_1559" data-name="Path 1559" d="M5011.11,7736.361l.689,1.99,1.165-.072-.917-.8Z" transform="translate(-3452.825 -6905.77)" fill="#f2f7fe"/>
    <path id="Path_1560" data-name="Path 1560" d="M7337.431,7637.377c-.155.376-.429,2.371-1.034,4.042v0a4.1,4.1,0,0,1-1.489,2.239c-1.715.929-4.767-.3-4.767-.3s-5.049.9-5.561.694-1.469-7.807-1.469-7.807,3.7-4.353,4.049-4.491,3.336,1.21,3.829,1.18,3.276-2.1,4.082-1.672S7337.678,7636.773,7337.431,7637.377Z" transform="translate(-5655.789 -6805.576)" fill="#fff"/>
    <path id="Path_1561" data-name="Path 1561" d="M7412.791,7643.84a14.519,14.519,0,0,1-1,2.241c-.237.19-2.834-3.422-2.834-3.422C7409.307,7642.521,7412.3,7643.869,7412.791,7643.84Z" transform="translate(-5737.59 -6816.478)" fill="#f2f7fe"/>
    <path id="Path_1562" data-name="Path 1562" d="M7510.493,7674.59s-3.408,3.568-3.343,3.878a19.72,19.72,0,0,0,4.2,2.218c.136-.087-.985-2.573-.963-3S7510.493,7674.59,7510.493,7674.59Z" transform="translate(-5831.148 -6846.911)" fill="#f2f7fe"/>
    <path id="Path_1563" data-name="Path 1563" d="M7579.061,7638.551c-.155.375-.43,2.37-1.034,4.042v0h0l.2-3.758-1.526-6.4C7577.508,7632.87,7579.308,7637.946,7579.061,7638.551Z" transform="translate(-5897.419 -6806.75)" fill="#f2f7fe"/>
    <path id="Path_1564" data-name="Path 1564" d="M7330.141,7745.2s-5.049.9-5.561.694-1.469-7.807-1.469-7.807,1.346,3.846,1.383,4.042,1.575-.332,1.575-.332Z" transform="translate(-5655.789 -6907.417)" fill="#f2f7fe"/>
    <path id="Path_1565" data-name="Path 1565" d="M7351.171,7736.361l.688,1.99,1.166-.072-.917-.8Z" transform="translate(-5682.525 -6905.77)" fill="#f2f7fe"/>
    <path id="Path_1566" data-name="Path 1566" d="M11437.412,7593.147c-.211.427-.67,2.724-1.492,4.622v0a4.758,4.758,0,0,1-1.887,2.494c-2.057.958-5.518-.684-5.518-.684s-5.927.684-6.5.41-1.151-9.172-1.151-9.172,4.608-4.79,5.022-4.928,3.789,1.644,4.361,1.644,3.953-2.2,4.859-1.652S11437.74,7592.46,11437.412,7593.147Z" transform="translate(-9560.284 -6762.303)" fill="#fff"/>
    <path id="Path_1567" data-name="Path 1567" d="M11531.783,7589.336a16.884,16.884,0,0,1-1.314,2.532c-.289.2-3.047-4.176-3.047-4.176C11527.83,7587.557,11531.211,7589.336,11531.783,7589.336Z" transform="translate(-9661.819 -6764.105)" fill="#f2f7fe"/>
    <path id="Path_1568" data-name="Path 1568" d="M11637.4,7636.741s-4.214,3.9-4.163,4.264,4.558,2.968,4.724,2.876-.961-3.057-.9-3.56S11637.4,7636.741,11637.4,7636.741Z" transform="translate(-9762.649 -6810.848)" fill="#f2f7fe"/>
    <path id="Path_1569" data-name="Path 1569" d="M11725.158,7594.945c-.207.426-.668,2.723-1.49,4.621v0h0l.5-4.35-1.319-7.538c.911.556,2.638,6.578,2.308,7.264Z" transform="translate(-9848.031 -6764.101)" fill="#f2f7fe"/>
    <path id="Path_1570" data-name="Path 1570" d="M11428.537,7701.1s-5.928.684-6.5.41-1.152-9.172-1.152-9.172,1.291,4.564,1.315,4.791,1.853-.271,1.853-.271Z" transform="translate(-9560.304 -6863.825)" fill="#f2f7fe"/>
    <path id="Path_1571" data-name="Path 1571" d="M11453.6,7692.341l.66,2.359h1.363l-1.014-.989Z" transform="translate(-9591.48 -6863.825)" fill="#f2f7fe"/>
    <path id="Path_1572" data-name="Path 1572" d="M11182.4,5507.392c-.144.3-.408,1.9-.971,3.244h0a3.387,3.387,0,0,1-1.379,1.8c-1.579.761-4.376-.194-4.376-.194a40.819,40.819,0,0,1-5.105.6c-.47-.158-1.3-6.231-1.3-6.231s3.423-3.516,3.745-3.629,3.05.938,3.506.908,3.02-1.706,3.757-1.373S11182.629,5506.908,11182.4,5507.392Z" transform="translate(-9320.55 -4777.243)" fill="#fff"/>
    <path id="Path_1573" data-name="Path 1573" d="M11252.148,5513.994a10.964,10.964,0,0,1-.93,1.8c-.214.155-2.577-2.71-2.577-2.71C11248.957,5512.972,11251.693,5514.024,11252.148,5513.994Z" transform="translate(-9396.188 -4787.338)" fill="#c4d9e8"/>
    <path id="Path_1574" data-name="Path 1574" d="M11341.179,5537.13s-3.155,2.883-3.095,3.133a18.7,18.7,0,0,0,3.842,1.736c.127-.07-.887-2.05-.863-2.395S11341.179,5537.13,11341.179,5537.13Z" transform="translate(-9481.41 -4810.257)" fill="#dfebf5"/>
    <path id="Path_1575" data-name="Path 1575" d="M11404.818,5508.276c-.145.3-.409,1.9-.971,3.244v0h0l.208-3.009-1.36-5.1C11403.429,5503.746,11405.051,5507.792,11404.818,5508.276Z" transform="translate(-9542.971 -4778.126)" fill="#c4d9e8"/>
    <path id="Path_1576" data-name="Path 1576" d="M11175.682,5595.837a40.909,40.909,0,0,1-5.1.6c-.47-.158-1.306-6.232-1.306-6.232s1.213,3.066,1.244,3.22,1.445-.277,1.445-.277Z" transform="translate(-9320.561 -4860.833)" fill="#dfebf5"/>
    <path id="Path_1577" data-name="Path 1577" d="M11195.1,5588.581l.623,1.585,1.065-.066-.84-.63Z" transform="translate(-9345.172 -4859.281)" fill="#dfebf5"/>
    <path id="Path_1578" data-name="Path 1578" d="M6098.713,6850.415s3.547,9.5,2.793,13.024.463,10.355-.979,13.408-4.02,7.5-1.548,8.622c.938.424,11.855-8.041,12.48-10.54s1.111-9.868,3.2-13.871.336-7.229-2.684-8.7-7.226-9.527-7.226-9.527Z" transform="translate(-4488.407 -6054.379)" fill="#223156"/>
    <path id="Path_1579" data-name="Path 1579" d="M6757.808,6114.107l-.16,0a2.151,2.151,0,0,1-2.175-2.3l8.653-86.451,7.555.674-12.429,86.915A1.407,1.407,0,0,1,6757.808,6114.107Z" transform="translate(-5114.911 -5275.453)" fill="#aec3ff"/>
    <path id="Path_1580" data-name="Path 1580" d="M8292.293,6114.107l.158,0a2.152,2.152,0,0,0,2.177-2.3l-8.655-86.451-7.554.674,12.429,86.915A1.406,1.406,0,0,0,8292.293,6114.107Z" transform="translate(-6566.044 -5275.453)" fill="#aec3ff"/>
    <path id="Path_1581" data-name="Path 1581" d="M5462.881,6114.107l-.158,0a2.153,2.153,0,0,1-2.178-2.3l8.657-86.451,7.552.674-12.429,86.915A1.405,1.405,0,0,1,5462.881,6114.107Z" transform="translate(-3881.053 -5275.453)" fill="#aec3ff"/>
    <path id="Path_1582" data-name="Path 1582" d="M6976.466,3833.286l15.364-75.88c1.973-10.273-6.54-19.667-17.593-19.415l-29.635.677a23.408,23.408,0,0,0-21.951,16.9l-22.48,77.721Z" transform="translate(-5252.795 -3095.962)" fill="#d2e0ff"/>
    <path id="Path_1583" data-name="Path 1583" d="M6779.356,3833.286l15.364-75.88c1.973-10.273-6.54-19.667-17.594-19.415l-29.636.677a23.407,23.407,0,0,0-21.95,16.9l-22.479,77.721Z" transform="translate(-5064.981 -3095.962)" fill="#aec3ff"/>
    <path id="Path_1584" data-name="Path 1584" d="M5971.825,5772.569H5854.584a4.3,4.3,0,0,1-4.284-4.284v-5.274a4.3,4.3,0,0,1,4.284-4.28h121.524v9.555A4.3,4.3,0,0,1,5971.825,5772.569Z" transform="translate(-4252.437 -5021.406)" fill="#d2e0ff"/>
    <path id="Path_1585" data-name="Path 1585" d="M5680.77,5772.569h-74.741a3.46,3.46,0,0,1-3.448-3.45v-6.94a3.459,3.459,0,0,1,3.448-3.449h74.741a3.458,3.458,0,0,1,3.45,3.449v6.94A3.459,3.459,0,0,1,5680.77,5772.569Z" transform="translate(-4016.401 -5021.406)" fill="#aec3ff"/>
    <path id="Path_1586" data-name="Path 1586" d="M5889.041,5098.875s-62.335-.99-70.652,4.3,8.313,89.756,8.313,89.756,16.122.514,17.4-3.752c0,0-2.9-39.578-.363-46.414s.973-16.315.973-16.315,31.533,4.812,41.547,2.444S5889.041,5098.875,5889.041,5098.875Z" transform="translate(-4219.813 -4392.599)" fill="#2c3a64"/>
    <path id="Path_1587" data-name="Path 1587" d="M5433.236,7277.829s-3.42,9.547-6.268,11.755-6.328,8.208-9.4,9.61-7.9,3.136-6.742,5.59c.441.931,14.245,1.5,16.333,0s7.217-6.824,11.4-8.532,4.922-5.3,3.565-8.378.627-11.944.627-11.944Z" transform="translate(-3833.518 -6467.053)" fill="#163560"/>
    <path id="Path_1588" data-name="Path 1588" d="M5932.173,5053.291s-73.972,11.577-79.673,18.159-28.27,92.322-28.27,92.322,6.585,3.693,12.592.274c0,0,17.184-29.057,24.775-38.174s10.506-37.318,11.755-37.6,41.059,4.808,55.725-4.9C5937.719,5077.649,5932.173,5053.291,5932.173,5053.291Z" transform="translate(-4227.597 -4349.236)" fill="#35488b"/>
    <path id="Path_1589" data-name="Path 1589" d="M6319.868,4671.116a8.473,8.473,0,0,1-4.461-.97c-.617-.39-4.963-1.9-6.951-1s-6.176,3.977-5.029,4.883,4.847.378,5.748.084,2.452,1.956,4.079,1.835,3.958-1,7.412-.464,2.864-4.431,2.36-4.853S6319.868,4671.116,6319.868,4671.116Z" transform="translate(-4684.009 -3982.941)" fill="#ffb27d"/>
    <path id="Path_1590" data-name="Path 1590" d="M6472.1,4631.647s-2.969-2.4-3.9-3.253-1.266-.738-1.373-.207,2.217,2.375,1.509,3.859S6472.457,4632.605,6472.1,4631.647Z" transform="translate(-4839.888 -3943.783)" fill="#ffb27d"/>
    <path id="Path_1591" data-name="Path 1591" d="M8002.566,3795.587l-.2-.356a23.647,23.647,0,0,0,8.229-6.952,14.171,14.171,0,0,0,2.546-6.739,13.947,13.947,0,0,0-1.159-7.124l-.012-.417a12.056,12.056,0,0,1,1.894,7.474,15.1,15.1,0,0,1-2.63,7.077C8009.382,3791.22,8006.261,3793.561,8002.566,3795.587Z" transform="translate(-6303.013 -3130.278)" fill="#163560"/>
    <path id="Path_1592" data-name="Path 1592" d="M6675.4,3017.844s1.038-2.643,1.163-3.307-1.03-4.911.213-6.5,4.928-4.671,5.488-3.442-.727,4.433-1.188,5.178,1.218,2.631.752,4.063-2.341,3.7-2.617,6.923-4.035,1.226-4.3.679S6675.4,3017.844,6675.4,3017.844Z" transform="translate(-5038.096 -2396.892)" fill="#ffb27d"/>
    <path id="Path_1593" data-name="Path 1593" d="M6729.842,2784.817c6.3-2.15,8.192-1.82,12.143-1.908,5.78-.131,12.051-2.458,15.09,3.7,4.6,9.322,7.622,1.925,17.915,6.2s5.587,13.393,4.506,15.947c-4.74,11.2,7.646,15.741,9.737,22.148s-5.53,17.821-15.371,17.963-55.539-5.487-51.165-20.8-3.686-23.635-4.35-27.613C6717.5,2795.393,6720.917,2787.862,6729.842,2784.817Z" transform="translate(-5079.427 -2185.414)" fill="#163560"/>
    <path id="Path_1594" data-name="Path 1594" d="M6890.139,3750.934q-8.854,1.234-16.473,2.344c-10.137,1.466-28.228-.746-28.3-3.2-.121-4.057,1.289-8.345,1.586-12.372a12.947,12.947,0,0,0-.625-5.539c-.222-.59-.493-1.266-.8-2.013-.631-1.522-1.415-3.334-2.2-5.28-.443-1.1-.889-2.247-1.309-3.41-.19-.516-.37-1.036-.543-1.555-.04-.115-.079-.233-.116-.349-.126-.379-.248-.755-.36-1.134-.111-.359-.215-.719-.316-1.079a32.808,32.808,0,0,1-.828-3.744,17.327,17.327,0,0,1-.225-2.741c.013-3.87-2.073-4.98-4.629-5.353-1.133-.166-2.353-.188-3.526-.241h0a16.822,16.822,0,0,1-2.632-.276c-1.708-.365-3.5-9.8-1.273-14.633a4.305,4.305,0,0,1,3.328-2.752l.017,0a57.621,57.621,0,0,0,11.214-2.691c1-.362,13.927-4.316,14.744-4.4,6.844-.7,12.975-1.392,19.342,3.584C6891.642,3696.165,6890.185,3750.843,6890.139,3750.934Z" transform="translate(-5182.612 -3040.729)" fill="#f99746"/>
    <path id="Path_1595" data-name="Path 1595" d="M6685.6,2807.23c-1.22-1.039-3.785-3.453-3.913-6.64-.111-2.75,1.26-5.57,4.069-8.383a28.026,28.026,0,0,1,11.944-7.306c3.24-.938,9.435.46,9.525.467l-1.967.491c-3.191-1.227-10.8-1.93-19.213,6.638-2.7,2.752-3.8,4.989-3.692,7.62a7.516,7.516,0,0,0,3.164,5.636c.059.05,1.565.42,1.565.42S6685.632,2807.259,6685.6,2807.23Z" transform="translate(-5044.606 -2187.517)" fill="#163560"/>
    <path id="Path_1596" data-name="Path 1596" d="M7087.313,3416.552c-5.745,1.49-6.545-.46-7.328-2.57-.324-.873-.771-2.41-1.3-4.254-.217-.772-.452-1.6-.7-2.454-.469-1.646-1.015-3.326-1.455-4.631-.479-1.427-.834-2.405-.834-2.405l10.984-5.606.654-.332c2.531,9.051,6.264,12.457,6.938,13.933C7095.7,3411.338,7091.08,3415.573,7087.313,3416.552Z" transform="translate(-5420.046 -2768.485)" fill="#ffb27d"/>
    <path id="Path_1597" data-name="Path 1597" d="M7104.537,3489.24a12.829,12.829,0,0,1-8.994,10.95c-.218-.772-.452-1.6-.7-2.454-.47-1.646-1.016-3.326-1.454-4.631Z" transform="translate(-5436.902 -2858.947)" fill="#f4a269"/>
    <path id="Path_1598" data-name="Path 1598" d="M6856.541,3100.847s15.4-4.412,12.5-13.959-2.856-16.547-12.811-14.135-10.75,6.632-10.56,10.054S6852.461,3101.749,6856.541,3100.847Z" transform="translate(-5200.847 -2461.646)" fill="#ffb27d"/>
    <path id="Path_1599" data-name="Path 1599" d="M6777.788,2810.114c-4.287,2.392-5.047,6.482-9.73,7.012-3.842.435-5.77-10.225,2.257-14.355,9.737-5.01,8.465-8.6,12.666-8.981,6.935-.635,11.967,22.422,11.584,22.882s-2.036,3.925-2.036,3.925-2.586-1.592-2.371-2.58c.7-3.193-1.782-6-3.819-3.59C6784.619,2816.463,6780.854,2808.4,6777.788,2810.114Z" transform="translate(-5123.746 -2196.282)" fill="#163560"/>
    <path id="Path_1600" data-name="Path 1600" d="M6313.137,3273.168s-1.326,4.277-3.726,10.259h0c-.8,2-1.724,4.186-2.755,6.468-.393.867-.776,1.675-1.148,2.431l-.034.066c-3.543,7.15-6.34,9.508-9.591,10.054a8.784,8.784,0,0,1-3.828.009c-1.84-.546-3.078-2.3-2.814-6.725.425-7.126,19.193-31.891,19.193-31.891,1.577.441,2.65,2.038,3.365,3.788A22.438,22.438,0,0,1,6313.137,3273.168Z" transform="translate(-4670.64 -2644.177)" fill="#f99746"/>
    <path id="Path_1601" data-name="Path 1601" d="M6374.021,3822.64s-27.738,2.8-31.385,3.123-4.526,8.933-4.526,8.933,17.515,6.928,35.551,6.782S6374.021,3822.64,6374.021,3822.64Z" transform="translate(-4717.242 -3176.624)" fill="#f99746"/>
    <path id="Path_1602" data-name="Path 1602" d="M7558.152,2869.414c-.81-3.842-3.222-7.737-6.826-9.072a22.139,22.139,0,0,0-10.416-.716,6.735,6.735,0,0,1-5.147-1.269,13.653,13.653,0,0,1-2.252-2.407v0l.474,1.311c-.607.926.186,1.012,1.36,1.906h0c1.084.824,3.017,1.311,5.634.958a19.35,19.35,0,0,1,9.659.825,9.62,9.62,0,0,1,6.061,5.451l0,0a10.255,10.255,0,0,1,.491,1.655l.911,1.282v0Z" transform="translate(-5856.266 -2255.524)" fill="#163560"/>
    <path id="Path_1603" data-name="Path 1603" d="M6568.276,3679.17c-.8,2-1.724,4.186-2.756,6.468-.393.867-.775,1.675-1.148,2.431a3.1,3.1,0,0,1-.345.1h0a6.648,6.648,0,0,1-2.01.2c-1.792-.169-1.247-1.7.172-2.69C6563.977,3684.422,6568.2,3679.26,6568.276,3679.17Z" transform="translate(-4929.507 -3039.92)" fill="#ed7d2b"/>
    <path id="Path_1604" data-name="Path 1604" d="M7256.111,4359.14s-8.818,22.777-25.229,25.654a12.946,12.946,0,0,0-.625-5.539c-.223-.59-.494-1.267-.8-2.014.973-.46,1.624-.741,1.624-.741Z" transform="translate(-5566.547 -3687.821)" fill="#ed7d2b"/>
    <path id="Path_1605" data-name="Path 1605" d="M7158.037,4180.5l-8.108,21.251H7143l0-.005c-.444-1.1-.889-2.246-1.309-3.41-.19-.517-.37-1.036-.543-1.555-.04-.116-.079-.234-.116-.349C7145.8,4194.843,7154.2,4186.413,7158.037,4180.5Z" transform="translate(-5482.297 -3517.606)" fill="#ed7d2b"/>
    <path id="Path_1606" data-name="Path 1606" d="M6661.055,3822.64s-19.473,31.211-27.714,34.714c-4.693,2-25.82,6.535-25.82,6.535l.427,4.685s30.27,1.111,33.635,0c9.9-3.27,25.951-24.833,25.951-24.833Z" transform="translate(-4973.946 -3176.624)" fill="#f99746"/>
    <path id="Path_1607" data-name="Path 1607" d="M8180.321,5708.974h14.892v-50.394h-14.892Z" transform="translate(-6472.571 -4925.979)" fill="#35488b"/>
    <path id="Path_1608" data-name="Path 1608" d="M8496.1,5708.974h35.913v-50.394H8496.1Z" transform="translate(-6773.459 -4925.979)" fill="#2c3a64"/>
    <path id="Path_1609" data-name="Path 1609" d="M8285.491,5739.357a2.488,2.488,0,1,1,2.485,2.608A2.549,2.549,0,0,1,8285.491,5739.357Z" transform="translate(-6572.782 -5000.462)" fill="#dde7fe"/>
    <path id="Path_1610" data-name="Path 1610" d="M8300.931,5754.812a1.76,1.76,0,1,1,1.758,1.845A1.8,1.8,0,0,1,8300.931,5754.812Z" transform="translate(-6587.494 -5015.917)" fill="#6c7aff"/>
    <path id="Path_1611" data-name="Path 1611" d="M8265.07,5938.483h7V5925.21h-7Z" transform="translate(-6553.325 -5180.034)" fill="#8fadef"/>
    <path id="Path_1612" data-name="Path 1612" d="M8867.111,6351.866h28.144v-9.516h-28.144Z" transform="translate(-7126.973 -5577.502)" fill="#cde2fc"/>
    <path id="Path_1613" data-name="Path 1613" d="M9463.871,6351.866h28.143v-9.516h-28.143Z" transform="translate(-7695.588 -5577.502)" fill="#a4c8f4"/>
    <path id="Path_1614" data-name="Path 1614" d="M8867.161,6441.237h7.022v-.208h-7.022Z" transform="translate(-7127.02 -5671.526)" fill="#8fadef"/>
    <path id="Path_1615" data-name="Path 1615" d="M9052.54,6379.2h19.4v-.205h-19.4Z" transform="translate(-7303.656 -5612.414)" fill="#8fadef"/>
    <path id="Path_1616" data-name="Path 1616" d="M8867.161,6495.578h12.414v-.208h-12.414Z" transform="translate(-7127.02 -5723.305)" fill="#8fadef"/>
    <path id="Path_1617" data-name="Path 1617" d="M8682.052,6150.1H8710.2v-9.515h-28.144Z" transform="translate(-6950.641 -5385.248)" fill="#d9e8fe"/>
    <path id="Path_1618" data-name="Path 1618" d="M9278.81,6150.1h28.144v-9.515H9278.81Z" transform="translate(-7519.254 -5385.248)" fill="#96c1ea"/>
    <path id="Path_1619" data-name="Path 1619" d="M8682.052,6239.478h7.023v-.207h-7.023Z" transform="translate(-6950.641 -5479.284)" fill="#8fadef"/>
    <path id="Path_1620" data-name="Path 1620" d="M8867.48,6177.388h19.4v-.207h-19.4Z" transform="translate(-7127.324 -5420.122)" fill="#8fadef"/>
    <path id="Path_1621" data-name="Path 1621" d="M8682.052,6293.808h12.416v-.207h-12.416Z" transform="translate(-6950.641 -5531.051)" fill="#8fadef"/>
    <path id="Path_1622" data-name="Path 1622" d="M9016.06,5581.3H9044.2v-9.515H9016.06Z" transform="translate(-7268.896 -4843.272)" fill="#d4e4f8"/>
    <path id="Path_1623" data-name="Path 1623" d="M9612.811,5581.3h28.141v-9.515h-28.141Z" transform="translate(-7837.503 -4843.272)" fill="#a4c8f4"/>
    <path id="Path_1624" data-name="Path 1624" d="M9016.06,5670.678h7.024v-.207h-7.024Z" transform="translate(-7268.896 -4937.309)" fill="#8fadef"/>
    <path id="Path_1625" data-name="Path 1625" d="M9201.48,5608.625h19.4v-.205h-19.4Z" transform="translate(-7445.572 -4878.185)" fill="#8fadef"/>
    <path id="Path_1626" data-name="Path 1626" d="M9016.06,5722.235h12.415v-.205H9016.06Z" transform="translate(-7268.896 -4986.437)" fill="#8fadef"/>
    <path id="Path_1627" data-name="Path 1627" d="M8831,5379.536h28.141v-9.515H8831Z" transform="translate(-7092.564 -4651.028)" fill="#f5fbff"/>
    <path id="Path_1628" data-name="Path 1628" d="M9427.7,5379.536h28.146v-9.515H9427.7Z" transform="translate(-7661.125 -4651.028)" fill="#bdd8ff"/>
    <path id="Path_1629" data-name="Path 1629" d="M8831,5468.909h7.021v-.208H8831Z" transform="translate(-7092.564 -4745.055)" fill="#8fadef"/>
    <path id="Path_1630" data-name="Path 1630" d="M9396.91,5468.909h7.024v-.208h-7.024Z" transform="translate(-7631.785 -4745.055)" fill="#8fadef"/>
    <path id="Path_1631" data-name="Path 1631" d="M9341.891,5406.876h19.4v-.206h-19.4Z" transform="translate(-7579.36 -4685.95)" fill="#8fadef"/>
    <path id="Path_1632" data-name="Path 1632" d="M8831,5523.248h12.417v-.208H8831Z" transform="translate(-7092.564 -4796.831)" fill="#8fadef"/>
    <path id="Path_1633" data-name="Path 1633" d="M9503.231,5790.6h28.14V5773.28h-28.14Z" transform="translate(-7733.093 -5035.27)" fill="#bdd8ff"/>
    <path id="Path_1634" data-name="Path 1634" d="M8906.48,5790.6h28.145V5773.28H8906.48Z" transform="translate(-7164.485 -5035.27)" fill="#f5fbff"/>
    <path id="Path_1635" data-name="Path 1635" d="M9951.051,5954.28h7.02V5954h-7.02Z" transform="translate(-8159.792 -5207.467)" fill="#8fadef"/>
    <path id="Path_1636" data-name="Path 1636" d="M9094.271,5842.479h38.687v-.148h-38.687Z" transform="translate(-7343.419 -5101.063)" fill="#35488b"/>
    <path id="Path_1637" data-name="Path 1637" d="M9836.711,6053.171h12.412v-.28h-12.412Z" transform="translate(-8050.845 -5301.694)" fill="#8fadef"/>
    <path id="Path_1638" data-name="Path 1638" d="M9329.951,5908.29h13.341v-.148h-13.341Z" transform="translate(-7567.984 -5163.77)" fill="#35488b"/>
    <path id="Path_1639" data-name="Path 1639" d="M8409.091,6609.113h82.862V6544.9h-82.862Z" transform="translate(-6690.553 -5770.5)" fill="#f77d48"/>
    <path id="Path_1640" data-name="Path 1640" d="M7831.49,6609.113h65.7V6544.9h-65.7Z" transform="translate(-6140.192 -5770.5)" fill="#ff8c64"/>
    <path id="Path_1641" data-name="Path 1641" d="M8246.427,6680.679H8229.5a1.968,1.968,0,0,1-1.963-1.961v-.355a1.969,1.969,0,0,1,1.963-1.963h16.924a1.969,1.969,0,0,1,1.963,1.963v.355A1.968,1.968,0,0,1,8246.427,6680.679Z" transform="translate(-6517.563 -5895.797)" fill="#2c3a64"/>
    <path id="Path_1642" data-name="Path 1642" d="M8367.646,6995.761l-15.516-2.856,2.725-16.274,15.515,2.858Z" transform="translate(-6636.278 -6181.868)" fill="#9fc1f4"/>
    <path id="Path_1643" data-name="Path 1643" d="M8416.076,6982.117l-15.515-2.856.438-2.631,15.515,2.858Z" transform="translate(-6682.426 -6181.868)" fill="#8fadef"/>
    <path id="Path_1644" data-name="Path 1644" d="M8772.229,6713.949l-15.235,4.2-4-15.979,15.236-4.2Z" transform="translate(-7018.233 -5916.351)" fill="#ffb93e"/>
    <path id="Path_1645" data-name="Path 1645" d="M8768.873,6700.554l-15.236,4.2-.646-2.583,15.236-4.2Z" transform="translate(-7018.233 -5916.351)" fill="#ffa412"/>
    <path id="Path_1646" data-name="Path 1646" d="M8856.69,3768.335h68.884V3717.44H8856.69Z" transform="translate(-7117.043 -3076.385)" fill="#8c9df4"/>
    <path id="Path_1647" data-name="Path 1647" d="M8376.531,3768.335h54.615V3717.44h-54.615Z" transform="translate(-6659.529 -3076.385)" fill="#a9baff"/>
    <path id="Path_1648" data-name="Path 1648" d="M8721.511,3825.1h-14.146a1.6,1.6,0,0,1-1.593-1.592v-.206a1.6,1.6,0,0,1,1.593-1.592h14.146a1.6,1.6,0,0,1,1.593,1.592v.206A1.6,1.6,0,0,1,8721.511,3825.1Z" transform="translate(-6973.242 -3175.738)" fill="#35488b"/>
    <path id="Path_1649" data-name="Path 1649" d="M8319.731,3545.022h57.294v-11.212h-57.294Z" transform="translate(-6605.407 -2901.416)" fill="#cad7ff"/>
    <path id="Path_1650" data-name="Path 1650" d="M9534.6,3545.022h38.629v-11.212H9534.6Z" transform="translate(-7762.983 -2901.416)" fill="#6980e2"/>
    <path id="Path_1651" data-name="Path 1651" d="M9030.853,3960.27l-17.519,4.6-4.6-17.519,17.519-4.6Z" transform="translate(-7261.915 -3291.069)" fill="#ff8c64"/>
    <path id="Path_1652" data-name="Path 1652" d="M9026.994,3945.582l-17.519,4.6-.743-2.831,17.519-4.6Z" transform="translate(-7261.915 -3291.069)" fill="#f77d48"/>
    <path id="Path_1653" data-name="Path 1653" d="M9127.981,2815.7l14.365-11.564,21.308,2.606v8.958Z" transform="translate(-7375.54 -2206.157)" fill="#f77d48"/>
    <path id="Path_1654" data-name="Path 1654" d="M8676.141,2814.636h35.673V2802.96h-35.673Z" transform="translate(-6945.008 -2205.033)" fill="#ff8c64"/>
    <path id="Path_1655" data-name="Path 1655" d="M9300.758,2888.2a1.846,1.846,0,1,1-1.847,1.845A1.847,1.847,0,0,1,9300.758,2888.2Z" transform="translate(-7538.408 -2286.253)" fill="#dde7fe"/>
    <path id="Path_1656" data-name="Path 1656" d="M9317.224,2905.46a1.032,1.032,0,1,1-1.032,1.032A1.033,1.033,0,0,1,9317.224,2905.46Z" transform="translate(-7554.874 -2302.699)" fill="#0b0755"/>
    <path id="Path_1657" data-name="Path 1657" d="M9009.661,2878.242H9020.7v-5.2h-11.041Z" transform="translate(-7262.799 -2271.808)" fill="#bdd8ff"/>
    <path id="Path_1658" data-name="Path 1658" d="M8721.52,3303.566h35.355v-11.4H8721.52Z" transform="translate(-6988.247 -2671.172)" fill="#dde7fe"/>
    <path id="Path_1659" data-name="Path 1659" d="M9471.2,3303.566h35.353v-11.4H9471.2Z" transform="translate(-7702.572 -2671.172)" fill="#8c9df4"/>
    <path id="Path_1660" data-name="Path 1660" d="M8721.52,3410.618h8.825v-.248h-8.825Z" transform="translate(-6988.247 -2783.797)" fill="#8c9df4"/>
    <path id="Path_1661" data-name="Path 1661" d="M8954.491,3336.268h24.367v-.247h-24.367Z" transform="translate(-7210.231 -2712.954)" fill="#8c9df4"/>
    <path id="Path_1662" data-name="Path 1662" d="M8721.52,3475.668h15.6v-.248h-15.6Z" transform="translate(-6988.247 -2845.779)" fill="#8c9df4"/>
    <path id="Path_1663" data-name="Path 1663" d="M8489.041,3061.927H8524.4v-11.4h-35.355Z" transform="translate(-6766.732 -2440.928)" fill="#e9f0ff"/>
    <path id="Path_1664" data-name="Path 1664" d="M9238.71,3061.927h35.354v-11.4H9238.71Z" transform="translate(-7481.046 -2440.928)" fill="#bbc9f9"/>
    <path id="Path_1665" data-name="Path 1665" d="M8489.041,3168.978h8.824v-.247h-8.824Z" transform="translate(-6766.732 -2553.553)" fill="#8fadef"/>
    <path id="Path_1666" data-name="Path 1666" d="M8721.941,3094.618h24.372v-.248h-24.372Z" transform="translate(-6988.649 -2482.7)" fill="#8fadef"/>
    <path id="Path_1667" data-name="Path 1667" d="M8489.041,3234.028h15.6v-.248h-15.6Z" transform="translate(-6766.732 -2615.535)" fill="#8fadef"/>
    <path id="Path_1668" data-name="Path 1668" d="M10844.382,2603.682s25.236-2,45.489-32.14l-15.45-33.481s-20.642,26.772-37.959,28.831Z" transform="translate(-9003.446 -1952.626)" fill="#fff"/>
    <path id="Path_1669" data-name="Path 1669" d="M8229.427,1326.582s-18.82-1.5-33.927-23.971l11.523-24.971s15.395,19.967,28.312,21.5Z" transform="translate(-6487.035 -751.648)" fill="#fff"/>
    <path id="Path_1670" data-name="Path 1670" d="M3430.246,3400.385s-20.968-1.666-37.8-26.7l12.838-27.819s17.149,22.244,31.541,23.955Z" transform="translate(-1910.502 -2722.33)" fill="#fff"/>
    <path id="Path_1671" data-name="Path 1671" d="M4780.182,6518.043s-6.992,17.354-32.723,24.977l-20.2-18.3s23.444-8.639,28.726-20.4Z" transform="translate(-3182.361 -5731.833)" fill="#fff"/>
    <path id="Path_1672" data-name="Path 1672" d="M6098.921,4740.7h34.716a2.767,2.767,0,0,0-2.768-2.767h-31.948Z" transform="translate(-4489.333 -4048.748)" fill="#0b233f"/>
    <path id="Path_1673" data-name="Path 1673" d="M5016.6,3994.911h-53.673l12.874,37.809h54.021Z" transform="translate(-3406.918 -3340.77)" fill="#0b233f"/>
    <path id="Path_1674" data-name="Path 1674" d="M4946.16,3994.89l12.875,37.81h54.021l-13.221-37.81Z" transform="translate(-3390.937 -3340.75)" fill="#163560"/>
    <path id="Path_1675" data-name="Path 1675" d="M5558.356,4335.5a3.488,3.488,0,0,0,3.218,2.615,2.014,2.014,0,0,0,2.012-2.615,3.488,3.488,0,0,0-3.219-2.616A2.013,2.013,0,0,0,5558.356,4335.5Z" transform="translate(-3974.196 -3662.801)" fill="#fff"/>
    <path id="Path_1676" data-name="Path 1676" d="M7905.891,4588.917h31.428v-11.4h-31.428Z" transform="translate(-6211.083 -3895.903)" fill="#e9f0ff"/>
    <path id="Path_1677" data-name="Path 1677" d="M8572.27,4588.917H8603.7v-11.4H8572.27Z" transform="translate(-6846.036 -3895.903)" fill="#6980e2"/>
    <path id="Path_1678" data-name="Path 1678" d="M7905.891,4695.958h7.845v-.248h-7.845Z" transform="translate(-6211.083 -4008.519)" fill="#8fadef"/>
    <path id="Path_1679" data-name="Path 1679" d="M8112.94,4621.619H8134.6v-.248H8112.94Z" transform="translate(-6408.369 -3937.685)" fill="#8fadef"/>
    <path id="Path_1680" data-name="Path 1680" d="M7905.891,4761.027h13.866v-.247h-13.866Z" transform="translate(-6211.083 -4070.52)" fill="#8fadef"/>
    <path id="Path_1681" data-name="Path 1681" d="M9701.021,3965.087h12.759v-41.156h-12.759Z" transform="translate(-7921.554 -3273.137)" fill="#ed7d2b"/>
    <path id="Path_1682" data-name="Path 1682" d="M9971.571,3965.087h30.765v-41.156h-30.765Z" transform="translate(-8179.345 -3273.137)" fill="#f99746"/>
    <path id="Path_1683" data-name="Path 1683" d="M9791.121,3989.909a2.129,2.129,0,1,1,2.132,2.129A2.132,2.132,0,0,1,9791.121,3989.909Z" transform="translate(-8007.405 -3333.976)" fill="#dde7fe"/>
    <path id="Path_1684" data-name="Path 1684" d="M9804.371,4002.505a1.506,1.506,0,1,1,1.506,1.506A1.506,1.506,0,0,1,9804.371,4002.505Z" transform="translate(-8020.03 -3346.572)" fill="#6c7aff"/>
    <path id="Path_1685" data-name="Path 1685" d="M9773.691,4152.53h6v-10.84h-6Z" transform="translate(-7990.797 -3480.627)" fill="#8fadef"/>
    <path id="Path_1686" data-name="Path 1686" d="M4456.42,3048.752h1.431v-24.638l-14.638-37.351,26.137-20.253-.877-1.131-26.982,20.908,14.93,38.1Z" transform="translate(-2910.069 -2359.793)" fill="#6980e2"/>
    <path id="Path_1687" data-name="Path 1687" d="M5004.311,2928.5h0a1.458,1.458,0,0,0,.346-2.034l-2.176-3.071a1.46,1.46,0,0,0-2.035-.346h0a1.459,1.459,0,0,0-.346,2.034l2.177,3.071A1.458,1.458,0,0,0,5004.311,2928.5Z" transform="translate(-3442.077 -2319.199)" fill="#6980e2"/>
    <path id="Path_1688" data-name="Path 1688" d="M4430.279,3371.415a1.895,1.895,0,1,0-1.895,1.894A1.895,1.895,0,0,0,4430.279,3371.415Z" transform="translate(-2895.776 -2744.874)" fill="#6980e2"/>
    <path id="Path_1689" data-name="Path 1689" d="M4625.94,4722.239h14.4v-1.453a2.646,2.646,0,0,0-2.645-2.646h-9a2.752,2.752,0,0,0-2.751,2.751Z" transform="translate(-3085.819 -4029.891)" fill="#6980e2"/>
    <path id="Path_1690" data-name="Path 1690" d="M4741.33,4270.683h3.024V4247.79h-3.024Z" transform="translate(-3195.767 -3581.723)" fill="#6980e2"/>
    <path id="Path_1691" data-name="Path 1691" d="M4945.85,2969.187c.068.077.136.154.207.224l.015.017c.066.074.133.145.2.214,1.955,1.7,8.435-1.344,14.7-6.95s10.011-11.706,8.543-13.838c-.062-.076-.125-.15-.191-.225l-.014-.016c-.063-.078-.131-.154-.2-.231a15.6,15.6,0,0,0-23.265,20.8Z" transform="translate(-3386.856 -2338.64)" fill="#f99746"/>
    <path id="Path_1692" data-name="Path 1692" d="M5023.258,3068.776l.015.014c.021.029.042.054.064.079a1.235,1.235,0,0,0,.139.136c1.954,1.7,8.435-1.341,14.7-6.95s10.012-11.7,8.545-13.835a1.852,1.852,0,0,0-.122-.154.52.52,0,0,0-.071-.072l-.015-.018c-1.331-1.259-4.943-.137-9.165,2.6a46.149,46.149,0,0,0-5.59,4.307,48.772,48.772,0,0,0-3.988,4C5023.97,3063.2,5022.053,3067.181,5023.258,3068.776Z" transform="translate(-3464.058 -2438.003)" fill="#f9ddbf"/>
    <path id="Path_1693" data-name="Path 1693" d="M5126.221,3121.736a6.433,6.433,0,0,0,9.579-8.306,46.177,46.177,0,0,0-5.591,4.307,48.608,48.608,0,0,0-3.988,4Z" transform="translate(-3562.507 -2500.861)" fill="#ffefe1"/>
    <path id="Path_1694" data-name="Path 1694" d="M4319.456,4805.116h295.432a4.126,4.126,0,0,0,4.125-4.125v-.255a4.127,4.127,0,0,0-4.125-4.126H4319.456a4.126,4.126,0,0,0-4.126,4.126v.255A4.126,4.126,0,0,0,4319.456,4805.116Z" transform="translate(-2789.858 -4104.66)" fill="#2a4e96"/>
    <path id="Path_1695" data-name="Path 1695" d="M4391.493,5031.142l-.1-.013a2.156,2.156,0,0,1-1.906-2.4l18.351-141.959,10.283.3-24.662,142.648A1.76,1.76,0,0,1,4391.493,5031.142Z" transform="translate(-2860.5 -4190.568)" fill="#2a4e96"/>
    <path id="Path_1696" data-name="Path 1696" d="M10236.156,5031.142l.1-.013a2.155,2.155,0,0,0,1.9-2.4l-18.352-141.959-10.28.3,24.661,142.648A1.76,1.76,0,0,0,10236.156,5031.142Z" transform="translate(-8406.081 -4190.568)" fill="#2a4e96"/>
  </g>
</svg>
