<svg xmlns="http://www.w3.org/2000/svg" id="smiling-face" width="22.132" height="22.132" viewBox="0 0 22.132 22.132"><g id="Group_32" data-name="Group 32"><path id="Path_53" fill="#501e78" d="M11.066,22.132A11.066,11.066,0,1,0,0,11.066,11.073,11.073,0,0,0,11.066,22.132Zm0-20.532A9.466,9.466,0,1,1,1.6,11.066,9.485,9.485,0,0,1,11.066,1.6Z" data-name="Path 53"/><path id="Path_54" fill="#501e78" d="M138.751,145.333a1.267,1.267,0,1,0-.893-.373A1.262,1.262,0,0,0,138.751,145.333Z" data-name="Path 54" transform="translate(-131.018 -136.08)"/><path id="Path_55" fill="#501e78" d="M273.618,145.333a1.267,1.267,0,1,0-.893-.373A1.239,1.239,0,0,0,273.618,145.333Z" data-name="Path 55" transform="translate(-259.539 -136.08)"/><path id="Path_56" fill="#501e78" d="M129.4,271.792c4.12,0,5.32-2.773,5.373-2.88a.809.809,0,0,0-.427-1.053.779.779,0,0,0-1.04.427c-.04.08-.88,1.907-3.893,1.907-2.92,0-3.44-1.72-3.466-1.8v.013l-1.56.387C124.423,268.912,125.183,271.792,129.4,271.792Z" data-name="Path 56" transform="translate(-118.53 -255.193)"/></g></svg>