<svg xmlns="http://www.w3.org/2000/svg" id="tablet-backside" width="20.729" height="23.823" viewBox="0 0 20.729 23.823"><g id="Group_15" data-name="Group 15"><path id="Path_24" fill="#501e78" d="M49.062,3.837A3.836,3.836,0,0,0,45.226,0H32.17a3.836,3.836,0,0,0-3.837,3.837v16.15a3.836,3.836,0,0,0,3.837,3.837H45.226a3.836,3.836,0,0,0,3.837-3.837V3.837Zm-1.856,16.15a1.974,1.974,0,0,1-1.98,1.98H32.17a1.974,1.974,0,0,1-1.98-1.98V3.837a1.974,1.974,0,0,1,1.98-1.98H45.226a1.974,1.974,0,0,1,1.98,1.98v16.15Z" data-name="Path 24" transform="translate(-28.333)"/><path id="Path_25" fill="#501e78" d="M199.261,322.023a.866.866,0,0,0,.65-.278.955.955,0,0,0,.278-.65.891.891,0,0,0-.278-.65.955.955,0,0,0-.65-.278.891.891,0,0,0-.65.278.955.955,0,0,0-.278.65.891.891,0,0,0,.278.65A.866.866,0,0,0,199.261,322.023Z" data-name="Path 25" transform="translate(-189.051 -302.686)"/></g></svg>