<svg xmlns="http://www.w3.org/2000/svg" xmlns:xlink="http://www.w3.org/1999/xlink" id="Layer_1" x="0" y="0" version="1.1" viewBox="0 0 512 512" xml:space="preserve" style="enable-background:new 0 0 512 512"><g><g><g><path d="M384,0H128c-23.521,0-42.667,19.135-42.667,42.667v426.667C85.333,492.865,104.479,512,128,512h256 c23.521,0,42.667-19.135,42.667-42.667V42.667C426.667,19.135,407.521,0,384,0z M405.333,469.333 c0,11.76-9.563,21.333-21.333,21.333H128c-11.771,0-21.333-9.573-21.333-21.333V42.667c0-11.76,9.563-21.333,21.333-21.333h256 c11.771,0,21.333,9.573,21.333,21.333V469.333z"/><path d="M213.333,42.667h-42.667C147.146,42.667,128,61.802,128,85.333S147.146,128,170.667,128h42.667 C236.854,128,256,108.865,256,85.333S236.854,42.667,213.333,42.667z M213.333,106.667h-42.667 c-11.771,0-21.333-9.573-21.333-21.333c0-11.76,9.563-21.333,21.333-21.333h42.667c11.771,0,21.333,9.573,21.333,21.333 C234.667,97.094,225.104,106.667,213.333,106.667z"/><circle cx="298.667" cy="85.333" r="21.333"/></g></g></g></svg>