<svg xmlns="http://www.w3.org/2000/svg" xmlns:svgjs="http://svgjs.com/svgjs" xmlns:xlink="http://www.w3.org/1999/xlink" style="enable-background:new 0 0 512 512" width="512" height="512" x="0" y="0" version="1.1" viewBox="0 0 510 510" xml:space="preserve"><g><g xmlns="http://www.w3.org/2000/svg"><g id="radio-button-on"><path fill="#df92f9" d="M255,127.5c-71.4,0-127.5,56.1-127.5,127.5c0,71.4,56.1,127.5,127.5,127.5c71.4,0,127.5-56.1,127.5-127.5 C382.5,183.6,326.4,127.5,255,127.5z M255,0C114.75,0,0,114.75,0,255s114.75,255,255,255s255-114.75,255-255S395.25,0,255,0z M255,459c-112.2,0-204-91.8-204-204S142.8,51,255,51s204,91.8,204,204S367.2,459,255,459z" data-original="#000000"/></g></g></g></svg>