<?xml version="1.0"?>
<svg xmlns="http://www.w3.org/2000/svg" xmlns:xlink="http://www.w3.org/1999/xlink" xmlns:svgjs="http://svgjs.com/svgjs" version="1.1" width="512" height="512" x="0" y="0" viewBox="0 0 510 510" style="enable-background:new 0 0 512 512" xml:space="preserve" class=""><g><g xmlns="http://www.w3.org/2000/svg"><path d="m510 240h-60.571c-7.306-95.591-83.838-172.123-179.429-179.429v-60.571h-30v60.571c-95.591 7.306-172.123 83.838-179.429 179.429h-60.571v30h60.571c7.306 95.591 83.838 172.123 179.429 179.429v60.571h30v-60.571c95.591-7.306 172.123-83.838 179.429-179.429h60.571zm-90.69 0h-75.567c-6.341-37.631-36.112-67.402-73.743-73.743v-75.568c79.035 7.157 142.154 70.276 149.31 149.311zm-164.31 75c-33.084 0-60-26.916-60-60s26.916-60 60-60 60 26.916 60 60-26.916 60-60 60zm-15-224.311v75.567c-37.631 6.341-67.402 36.112-73.743 73.743h-75.568c7.157-79.034 70.276-142.153 149.311-149.31zm-149.311 179.311h75.567c6.341 37.631 36.112 67.402 73.743 73.743v75.567c-79.034-7.156-142.153-70.275-149.31-149.31zm179.311 149.31v-75.567c37.631-6.341 67.402-36.112 73.743-73.743h75.567c-7.156 79.035-70.275 142.154-149.31 149.31z" fill="#aa2fdd" data-original="#000000" style="" class=""/><path d="m240 240h30v30h-30z" fill="#aa2fdd" data-original="#000000" style="" class=""/></g></g></svg>
